<svg xmlns="http://www.w3.org/2000/svg" viewBox="0 0 315.72 65.53"><defs><style>.cls-1{fill:red;}</style></defs><g id="Layer_2" data-name="Layer 2"><g id="Layer_1-2" data-name="Layer 1"><path d="M13.62,56.55c-.8-.24-1.66-.44-2.48-.63C7.79,55.15,4,54.27,2,50A23.57,23.57,0,0,1,.19,43.81l0-.13v-.13c0-.51,0-.84,0-1.08A3.61,3.61,0,0,1,.34,41l-.11-.4-.06-.24v-.25a5.59,5.59,0,0,1,.24-1.42l0-.1-.21-.3.22-.9a6.74,6.74,0,0,0-.07-1.55l-.11-.41s.18-1,.19-1L.35,34l.06-.44c.05-.32.13-.69.21-1.08a11,11,0,0,0,.27-1.85,13.69,13.69,0,0,0-.24-1.87l-.52-.87.62-1a1.71,1.71,0,0,0,.15-.34s-.17-.39-.27-.62A5.6,5.6,0,0,1,0,24l0-.46.47-1.19c.25-4.08,4-8.78,8.62-8.78,3.86,0,6.46,3.75,6.46,7.25a8,8,0,0,1-.17,1.47,5.26,5.26,0,0,0-.12.84A9.48,9.48,0,0,1,14,27.49l.14.36-.19.64c-.1.34-.24.76-.39,1.24C13.15,31,11.9,35,12.15,36l.14.46-.08.46a23.3,23.3,0,0,0-.33,3.64c0,.44,0,.93.1,1.45s.11,1.26.11,1.94a10.6,10.6,0,0,0,.28,1.81l.46-.58.86,3.66a11.51,11.51,0,0,0,2.14.64l.08,0,1-.32.51.43c.19,0,.36,0,.53,0,.34,0,.69-.06,1-.06l.39,0a8.63,8.63,0,0,1,1.29-.17l.42,0,.29-.19h.6a19.09,19.09,0,0,0,6.85-1.6l2.71-1v2.91c0,2.86-2.43,3.86-3.88,4.46a7.21,7.21,0,0,0-1.24.6l-1,.74L25.09,55l-.28.16a23.72,23.72,0,0,1-6.32,1.27,5.15,5.15,0,0,1-1.75.25h-.67c-.16,0-.45,0-.78-.06l-.44,0-.33.23Z"/><path d="M45.73,56c-2.54,0-4.09-2.18-5.09-4.37a4.16,4.16,0,0,1-1,.8,3.37,3.37,0,0,0-.34.21l-.22,1-.86.29h0l-.59.49a7.29,7.29,0,0,1-3.65,1.48c-2.91,0-7.77-4.77-7.77-7.62A7.91,7.91,0,0,0,26,46.2l-.1-.31v-.33a3.4,3.4,0,0,1,.53-1.73c0-.06,0-.12,0-.18a2.88,2.88,0,0,0,0-.32v-.47l.56-1.1a12.87,12.87,0,0,0,1.15-2.68l.16-.72.59-.44a17.19,17.19,0,0,0,2-2.56v-.28l.34-.51a12.76,12.76,0,0,1,3.1-2.86,11.8,11.8,0,0,0,1.12-.87,2.66,2.66,0,0,1,.81-.69l.07-.08.43-.19c2.2-1,3.79-1.65,4.91-1.65.92,0,4.61.71,5.78,2.69A4.71,4.71,0,0,1,48,34.6l-.11.45-.31.36-.27.32a3.92,3.92,0,0,1,2.34,3.14,6.45,6.45,0,0,1-1,3.05,9.26,9.26,0,0,0-.42.86,25.12,25.12,0,0,0-.74,6.46,2.44,2.44,0,0,0,0,.27c1.79-1.27,5.19-6,6.12-8.47l1.82-4.81,2.2,5.49h0a5.2,5.2,0,0,1,0,3,2.66,2.66,0,0,1-.23.54,6.11,6.11,0,0,1-1.38,2.57l-.07.72-.57.52a5.55,5.55,0,0,0-.84,1.18,11.54,11.54,0,0,1-.78,1.2l-.26.35L53,52C51.58,54.74,48.35,56,45.73,56Zm-9.1-10.8a5.3,5.3,0,0,1,0,.69,22.72,22.72,0,0,0,2.48-4.11,2.54,2.54,0,0,1-.35-1.32,4.62,4.62,0,0,1,1.37-2.7h-.07a3.43,3.43,0,0,0-.47,0c-1.29,1.47-1.59,2.54-2.23,4.85C37.16,43.38,36.93,44.22,36.63,45.19Z"/><path d="M78.19,56.44a2.43,2.43,0,0,1-.61-.08l-.29-.07,0,0s-.63,0-.63,0c-2.08,0-5.91-2.86-6.09-3a10,10,0,0,1-1-1.32l-.36-.51-.36-.18-.26-.77c-.5-1.46-.93-2.88-1.3-4.28l-.1.15a19.42,19.42,0,0,1-1.6,2.2,2.66,2.66,0,0,1-.14.54h0c-.1.3-.28.9-.33,1.16V52.1h-.65a3.52,3.52,0,0,1-2.29,2.17l-.24.09-.25,0a7.13,7.13,0,0,1-.91,0,7.27,7.27,0,0,1-6-3.22,10.37,10.37,0,0,1-1.85-5.8c0-.62,0-1.22,0-1.84s0-1.34,0-2-.08-1.65-.13-2.45c-.07-1-.13-2-.15-3a2.94,2.94,0,0,1-.36-1.44,2.88,2.88,0,0,1,.62-1.81l.18-.42.38-.36c1-.86,3.49-2.87,5.43-2.87A4.83,4.83,0,0,1,62.62,31l.14.17.1.2a9.46,9.46,0,0,1,.61,1.73,8.35,8.35,0,0,0,.25.8l.49,1.22-.5.5v2.62a5.61,5.61,0,0,1-.23,1.37,4.36,4.36,0,0,0-.13.65v.82a20.8,20.8,0,0,1,1.41-1.59,2.16,2.16,0,0,0,.41-.74A6.8,6.8,0,0,1,66,37.16l.09-.11.1-.1c1.53-1.54,3.42-3.11,5.8-3.11,3.32,0,5,3.39,5.1,5.79v.1a20.45,20.45,0,0,0,.1,2.48c0,.28.06.61.1,1.06v0a30.07,30.07,0,0,0,2.46,6.87A15,15,0,0,0,80.9,49c.23-.26.45-.5.65-.69l.58-.59H83a2.29,2.29,0,0,1,.76.14h1.6v3.53l-.32.16c0,.14-.11.28-.18.43l-.09.18-.12.16c-.15.2-.29.42-.43.65a8.21,8.21,0,0,1-1.25,1.69L82.6,55h0a2,2,0,0,1-.81.49,4.47,4.47,0,0,1-2.59.75A3.18,3.18,0,0,1,78.19,56.44Z"/><path d="M87.84,56.79a7.08,7.08,0,0,1-4.16-6.2,6.23,6.23,0,0,0-.12-.78l-.14-.48.09-.49c.1-.47.18-.92.25-1.35A13,13,0,0,1,85.65,42a5.88,5.88,0,0,1,.51-1.42c.06-.14.13-.28.19-.45l.14-.35.26-.28a12.44,12.44,0,0,0,1.26-2,12.9,12.9,0,0,1,1.69-2.59,3.91,3.91,0,0,1,1-1.48l.13-.37.47-.35c.11-.08,2.7-2,4-2.18l.51-.07.28.12a3.11,3.11,0,0,1,.4,0l.59,0h.5l.49.24.08,0q.32-1.35.78-3.75c.09-.51.17-.91.21-1.1.47-1.86,1.08-4.48,1.73-7.27.87-3.74,1.77-7.6,2.42-10a3.16,3.16,0,0,1-.53-1.66,6.54,6.54,0,0,1,1.78-3.84c.13-.16.24-.3.33-.43l.19-.26.27-.19A28.25,28.25,0,0,1,108.66.31l.36-.2L110.38,0h.08c2,0,3.08,2.12,3.08,3.66a10.54,10.54,0,0,1-1.19,4.26,11.72,11.72,0,0,0-.73,1.95l0,.1c-.71,2.45-2.74,13.46-2.66,14.92a11.45,11.45,0,0,1-.14,2.8l.31.86-.16.6a14,14,0,0,0-.3,3.6,2.16,2.16,0,0,0,.09.52l.18.72-.15.3h0a5.07,5.07,0,0,1,.08,1.23,2.68,2.68,0,0,1,0,1v.07a15.53,15.53,0,0,1,0,3.2V40a4.8,4.8,0,0,1,.18,2.89l0,.11a5.11,5.11,0,0,1,.31,2.26c0,.12,0,.23,0,.33a8.27,8.27,0,0,0,.32,2,23.62,23.62,0,0,0,6.87-6.74A2.75,2.75,0,0,1,119,39.24h2.56l-.85,3.41a2.17,2.17,0,0,1-.44,1.18,1.62,1.62,0,0,1,0,.22,2.19,2.19,0,0,1-.7,1.62l-1.09,2.12-.52.21-.22.34a9.81,9.81,0,0,1-2.1,2.56l0,.13-.88.66a3.11,3.11,0,0,1-1.29.68,1.3,1.3,0,0,1-.2.15A3.71,3.71,0,0,1,111,54.39l-.25.13-.21.4-1.23.06a3.81,3.81,0,0,0-.44.07,5.1,5.1,0,0,1-1.15.15,5.8,5.8,0,0,1-3.88-1.87,5.39,5.39,0,0,0-1-.77l-.44-.21-.3-.39a24.27,24.27,0,0,1-2.9-5.12q-.36.6-.75,1.2a3.93,3.93,0,0,1-.33,1.05c0,.08-.07.16-.12.27l-.78,2.09-.61-.31a3.06,3.06,0,0,0-.24.37l-.2.46-.37.27a4.56,4.56,0,0,0-1,1.23,6.73,6.73,0,0,1-4.16,3.37L90.3,57l-.8-.07-1.07.2Z"/><path class="cls-1" d="M25.14,52.84c-.57-.29-.79.36-1.22.57A22.86,22.86,0,0,1,18,54.49a4.27,4.27,0,0,1-1.95.22,8.07,8.07,0,0,0-1.87-.07c-4-1.23-8.35-1.16-10.44-5.55a21.45,21.45,0,0,1-1.59-5.54c0-2.23-.14-1.3.36-2.74-.14,0-.14.15-.36-.72,0-.72.58-1.73.22-2.23a7.62,7.62,0,0,0-.07-2.52c.21-1.23.21-.94.07-1.44a24.06,24.06,0,0,0,.5-3.24,11.28,11.28,0,0,0-.43-2.74,2.71,2.71,0,0,0,.43-1.29c0-1-.79-1.88-.86-2.81l.43-1.08c0-3.24,3.17-7.2,6.63-7.2,2.73,0,4.46,2.81,4.46,5.25,0,.72-.29,1.52-.29,2.31a9.1,9.1,0,0,1-1.44,4.25l.22.57c-.58,1.95-2.38,6.84-1.8,8.64a24.2,24.2,0,0,0-.36,4c0,1.08.21,2.24.21,3.39A19.52,19.52,0,0,0,11,48.44c.07.15.5,1.52.79,1.16.29,1.22,3.1,1.65,4.18,1.94l.43-.14c.51.43,2.23-.08,3,.14.64-.29,2-.14,2.44-.43a20.9,20.9,0,0,0,7.56-1.73C29.46,51.61,26.58,51.76,25.14,52.84Z"/><path class="cls-1" d="M55.46,44.34A4,4,0,0,1,54,46.86l-.08.72a18.1,18.1,0,0,0-1.87,2.66l-.65.36C50.63,52.84,48,54,45.73,54c-2.52,0-3.81-4.54-4.46-6.41H41.2c-.51.65-.87,1.73-1.73,1.94-.07.58-.22-.07-.22.51s-1.65.72-1.94,2.09c-.43.14-.94.28-1,.79a5.8,5.8,0,0,1-2.37,1c-1.73,0-5.77-3.82-5.77-5.62a9.39,9.39,0,0,0-.28-2.74,2.1,2.1,0,0,1,.5-1.08c0-.5.07-.72.07-1.15a18,18,0,0,0,1.66-3.81c.58-.44,2.81-3.17,2.81-3.82C34,34.11,36.37,33,37.09,32c0-.08.36-.22.44-.29a16.28,16.28,0,0,1,4.17-1.51c.94,0,3.75.86,4.11,1.8A2.57,2.57,0,0,1,46,34.11c-1.65,2-2.66,1.81-5,1.81a4,4,0,0,0-2.45.07c-2.59,2.73-2.44,4.32-4,9.07a3.21,3.21,0,0,1-.5,2.38v.64a2.56,2.56,0,0,1,.22,1.3v.72l.21.36h.22c3.09-2.09,5.25-5.54,6.69-8.93-.14-.43-.64-.57-.64-1.08,0-.72,2.23-2.88,2.88-2.73a4.4,4.4,0,0,1,1.65-.58c.72,0,2.31,1,2.31,1.73,0,1.08-.94,2.23-1.3,3.24a26.37,26.37,0,0,0-.86,7.13,5.62,5.62,0,0,0,.5,2.37,4,4,0,0,0,.86.22c2.81,0,7.64-7.42,8.65-10.08l.28.72C55.74,42.4,55.81,44.34,55.46,44.34Z"/><path class="cls-1" d="M61.43,47.29a42,42,0,0,1,4.75-6.41c.79-.79.79-1.65,1.44-2.52,1.23-1.22,2.74-2.52,4.39-2.52,2,0,3,2.45,3.1,3.89a31.18,31.18,0,0,0,.22,3.89c.07.22,2.23,8.86,4.1,8.86,1.3,0,2.67-1.88,3.53-2.74.07,0,.22.14.36.14v.29c-.14.07-.07.51-.29.94a18.84,18.84,0,0,1-1.51,2.16c-.43.14-.29.5-.5.29a2.72,2.72,0,0,1-2.09.72c-.22,0-.58.21-.87.14a3.23,3.23,0,0,0-1.44-.14c-1.15,0-4.46-2.24-4.68-2.45s-1.37-1.95-1.51-2A55.78,55.78,0,0,1,68.34,42a5.56,5.56,0,0,0-1.58,1.37,5.09,5.09,0,0,0-1.23,1.8c-.28.43-1.51,2.31-1.8,2.31-.14,0-.14,1-.21,1a11.5,11.5,0,0,0-.43,1.66c-1.23,0,.57,1.44-1.66,2.3-4.32.51-6.55-3.81-6.55-7,0-1.3-.08-2.52-.08-3.89-.07-2.16-.28-4-.28-6,0-.29-.36-.37-.36-.94s.28-.58.5-1.08c.58-.51,2.88-2.38,4.11-2.38a2.82,2.82,0,0,1,2.3,1.08c.36.72.5,1.66.79,2.38-.21.21-.14,1.15-.14,1.15v2.45c0,.5-.36,1.37-.36,2v2.95C61.36,44.2,61.36,46.21,61.43,47.29Z"/><path class="cls-1" d="M118.67,42.54c0,.14-.36.29-.43.65a3.52,3.52,0,0,0,0,.86.19.19,0,0,1-.22.22l-1,1.94-.36.15c-.57.64-1.8,3.16-2.8,3.16l-.08.36c-.86.65-.57.51-1.44.65-.21.36-.14.36-.36.22-.5.65-.79,1.73-1.72,1.73-.8.64-.65-.08-.94.5-.58,0-1.08.22-1.59.22-1.65,0-2.66-1.8-4-2.45-1.37-1.8-3.24-5.26-3.38-7.49a13.57,13.57,0,0,1-.36-2l-.15-.36c-.64.72-.64,1.8-1.15,2.6-.43.07-.5.64-.36,1-.57.94-1.15,2-1.8,2.88a2.67,2.67,0,0,1-.36,1.3,7.16,7.16,0,0,0-1.58,2c-1.8,1.44-1.44,3.31-4.47,4.24a2.8,2.8,0,0,0-1.36.08c-3.39-1.66-2.81-4.32-3.25-5.76C86,46.72,86,45,87.56,42.76a5.91,5.91,0,0,1,.65-1.88c1.15-1.22,2.23-4.17,3.24-4.82.29-1.23.79-1.15,1-1.73a13.8,13.8,0,0,1,3.1-1.8l.36.14c.07-.14,1.08-.07,1.22-.07l2,1.08c.72-.07,1.72-6.26,1.94-7.2,1.15-4.53,3.24-14.11,4.32-17.86,0-.5-.65-1-.65-1.51,0-1.08,1.15-2.3,1.73-3.09a28.73,28.73,0,0,1,3.1-1.95l.86-.07c.65,0,1.08,1.08,1.08,1.66,0,1.94-1.44,3.88-1.87,5.76-.65,2.23-2.88,13.89-2.74,15.62a9.53,9.53,0,0,1-.21,2.81l.28.79a15.89,15.89,0,0,0-.36,4.11,4.21,4.21,0,0,0,.15,1c-.22.44.21,1.3,0,1.88.29.64-.22.79.07,1.22a18.29,18.29,0,0,1-.07,3.39c.43,1.22.43.57.14,3.16.51.58.36,1.44.36,2.16,0,1.08.43,4.4,1.88,4.32l.64-.07a25.56,25.56,0,0,0,8.43-8,.85.85,0,0,1,.72-.58l-.22.87C118.6,42.25,118.67,42.4,118.67,42.54ZM97.36,39.37c-.87,0-4,2.74-4.76,3.46A22.58,22.58,0,0,1,90.73,46c0,.93-.5,1.65-.5,2.59,0,.29.21.79.57.79,3.24,0,6-7.06,7.42-9.5v-.36C98,39.52,97.57,39.37,97.36,39.37Z"/><path d="M128.82,55.09A7.53,7.53,0,0,1,123.14,52a3.89,3.89,0,0,1-.79-1.8c-.11-.37-.22-.77-.3-1a1.17,1.17,0,0,0,0,.11,3.16,3.16,0,0,1-.18-.47l-.21-.21.07-.92a9.38,9.38,0,0,1,.69-2.76l.1-.26v0a2.31,2.31,0,0,1,.25-1,5.11,5.11,0,0,1,3.32-3.54,2.66,2.66,0,0,1,1.56-.44,5,5,0,0,1,.76,0,3.16,3.16,0,0,1,2.9,3.11h.11a16.64,16.64,0,0,1,2.48.67l.46.16.75.81a3.46,3.46,0,0,1,1.13,2.76v.3l-.07.3a10.91,10.91,0,0,1-2.56,4.42c-.53.56-1,1-1.57,1.6l-.19.19-.23.14A5.77,5.77,0,0,1,128.82,55.09Zm-.07-5.27a4.09,4.09,0,0,0,1-1.15,7.4,7.4,0,0,0-1-.44l-.11.22,0,.25a5.79,5.79,0,0,1,.11.84S128.73,49.73,128.75,49.82Z"/><path d="M134.89,65.33a3,3,0,0,1-1.43-.64l-.11-.07c-2-1.42-4.07-3.05-5.12-6L131.84,57a5.79,5.79,0,0,0,2.77,2.59l.19,0c.54-.66.87-3.19,1-4.17.06-.49.12-.93.18-1.29a2.62,2.62,0,0,1,0-1.06c0-.73,0-1.46,0-2.19,0-.4,0-1.41-.05-2.35l-1.67.28a5.44,5.44,0,0,1-1.39.38l-.41.06h0l-.41.16-.45.3h-1.11a2.9,2.9,0,0,1-2.76-2l0-.1-.35-.47v-1c0-3.12,2.82-3.67,3.88-3.88a5.27,5.27,0,0,0,.65-.14l.64-.21.63.21h.07a3.8,3.8,0,0,0,.52,0c.31,0,.63-.06.94-.06s.5,0,.74,0l.11-.63A3.19,3.19,0,0,1,135,39.7a5.34,5.34,0,0,1,.29-1.61c0-.13.1-.32.11-.38a8.53,8.53,0,0,0,0-1l-.08-.42.08-.32a4.76,4.76,0,0,0-.07-.61l0-.18v-.41l0-1-.5-1.26.41-.31-.31-.63.38-.54-.13-.93-.4-.48.22-.89A3.84,3.84,0,0,1,136,26a4.32,4.32,0,0,1,3-1.6c2.73,0,3.26,5.7,3.35,7.16a13.66,13.66,0,0,1,.33,2.72,11.35,11.35,0,0,1,.36,1.77,11.61,11.61,0,0,0,.22,1.14l.13.46,0,.09.14.37,0,.31a2.93,2.93,0,0,1,.07.65,3.9,3.9,0,0,1-1.08,2.57c1.46-.21,3-.46,3.45-.59l.31-.17h.5a2.39,2.39,0,0,1,2.33,2.54v.7l-.43.54c-.91,1.15-2.86,1.75-6.9,2.69l-.14,0c0,.13,0,.27,0,.41a14.75,14.75,0,0,1,.12,1.68c0,.7,0,1.07,0,1.25l.12.2v.53c0,.26,0,.52,0,.78s0,.27,0,.42l.14.06,0,1.29c0,.54,0,1.11,0,1.72s0,1,0,1.52c0,2.24-1.7,8.12-5.53,8.12h-.41l-.31.06-.69.09Z"/><path d="M159,57a6.33,6.33,0,0,1-4.39-2.2A8,8,0,0,1,152.41,50a5.54,5.54,0,0,1-.14-.87l0,0v-.3l-.11-1.09.12-.08v-.88l0-.07v0a3.3,3.3,0,0,1-.92.13A3.24,3.24,0,0,1,148,43.55a3.9,3.9,0,0,1,3.9-3.66l.45,0c0-.06,0-.22,0-.26l-.1-.31.1-.7-.22-1,.08-.12v0l.12-.36,0-.11.07-.53a6.62,6.62,0,0,1,.24-.91l.11-.37a3.49,3.49,0,0,1,.12-.86,5.39,5.39,0,0,1,.51-1.35l.32-.64.45-.2a4.88,4.88,0,0,1,.35-.38,3.9,3.9,0,0,1,3.55-1.8,3,3,0,0,1,3.34,3c0,.54,0,1,0,1.31l.06.47-.19.49c-.1.26-.22.51-.34.76a3.19,3.19,0,0,0-.24.56l0,.48-.18.32a4.77,4.77,0,0,1-.33,1c0,.07-.06.13-.08.21v.6l-.15.22,0,.46,0,.07c1.24-.11,2.4-.23,3.79-.37l.18,0a18.49,18.49,0,0,1,2.28-.3h1.34l.67,1.6v.4a2.2,2.2,0,0,1-1.11,2.08l-.19.11-.21.07a56.33,56.33,0,0,1-7.83,1.65c0,.13,0,.26-.06.37l0,.56a5.11,5.11,0,0,1,0,.91l.08.07-.06.89c-.08,1.36.63,3.75,1.24,4.21.24-.06,1-.41,2.54-2.3l.6-.72H164a2,2,0,0,1,1.58.66l.6.65-.07.86v.51l-.51.83a3.6,3.6,0,0,1-.87,1.24l-.78,1.3h-.1l.09.28-.72.29-.2.3h-.48l-.34.85-1-.18a2.64,2.64,0,0,1-1.25.34,2.85,2.85,0,0,1-.41,0,2.76,2.76,0,0,1-.44,0Z"/><path d="M166.56,55.71a4.35,4.35,0,0,1-1.12-.15c-2.05,0-3.81-2.52-3.95-4.13l-.1-1.14a16.56,16.56,0,0,1,.19-3.66c.19-1.13.31-2.25.43-3.34l.21-1.76c.23-1.68.4-3.23.49-4.64a3.55,3.55,0,0,1,.13-.72V36a5.5,5.5,0,0,1,.14-1.44l-.07-.07.17-1a3.35,3.35,0,0,1,3.15-3l.36,0A3.57,3.57,0,0,1,169.9,33l.2.2.06.74c0,.31,0,.54,0,.77s0,.24,0,.39a2.78,2.78,0,0,1-.39,1.81,6.37,6.37,0,0,0-.29.79,8.14,8.14,0,0,1-.42,1.18l0,.24a5.77,5.77,0,0,1-.17.79,5.66,5.66,0,0,0-.13.82,5.49,5.49,0,0,1-.14,1.09,1.63,1.63,0,0,0-.05.63,5.9,5.9,0,0,1-.08,1.51,3.15,3.15,0,0,0-.06.53v.06a3.28,3.28,0,0,1,1.8-.82l.44-.08H171a3.2,3.2,0,0,1,3.05,3,5.13,5.13,0,0,1-.22,1.81,3.81,3.81,0,0,0-.1.45l0,.12v.1a5,5,0,0,0,.14.56l0,0,.13-.11s.09-.14.17-.26.34-.45.5-.64l.67-.67h.85a2.09,2.09,0,0,1,2.06,2.12c0,.13,0,.25,0,.33a2.49,2.49,0,0,1-.51,1.63l-.21.64-.5.25c-.33.32-1,1-1,1l-.12.11-.12.09-.19.16a3.89,3.89,0,0,1-2.11,1.07l-.12,0a6.25,6.25,0,0,1-.74,0h0a5,5,0,0,1-3.28-1.63,2.58,2.58,0,0,1-1.25,1.4l-.24.4-1,.11A3.54,3.54,0,0,1,166.56,55.71Z"/><path d="M180.38,55.36l-.55,0A7.28,7.28,0,0,1,177.6,55a5.16,5.16,0,0,1-3.36-5.38l0-.79a2.93,2.93,0,0,1-1.35-3.14,2.87,2.87,0,0,1,2.8-2.45,3.13,3.13,0,0,1,.85.13l.06-.05.05-.1.34-.28a7.68,7.68,0,0,0,.58-.54,6.08,6.08,0,0,1,.86-.76,2.28,2.28,0,0,1,.87-.37l0,0a4.69,4.69,0,0,1,2.66-.87h0a4.6,4.6,0,0,1,2,.57h0l.18.08a3.58,3.58,0,0,1,2,1.65l.08.16.42.16.05,1.32a2.58,2.58,0,0,0,0,.29,2.56,2.56,0,0,1-.07,1.2,2.36,2.36,0,0,1-.37,1.31l-.2.53-.47.53-.49.54A2.5,2.5,0,0,1,187,50.86c.08.92-.21,2.32-3.53,3.91A8.4,8.4,0,0,1,180.38,55.36Z"/><path class="cls-1" d="M132.2,50.89c-.5.54-1,1-1.51,1.55a4,4,0,0,1-1.87.65c-1.87,0-3.06-1.12-4.21-2.41-.11-.11-.58-2-.76-2.27-.07-.14,0-.36-.07-.47.14-1.76.9-2.59.79-3.2,0-.07.14-.29.18-.43A3.12,3.12,0,0,1,127,42c.54-.14-.07-.25.93-.25,0,0,0,0,.51,0s.9.8.9,1.12-.43,1.26-.43,1.55v.43s.07.07.14.07.4,0,.61,0a5.78,5.78,0,0,1,1.48-.11,15.2,15.2,0,0,1,2.12.58l.61.64c.15,0,.36.58.4,1.3A8.82,8.82,0,0,1,132.2,50.89Zm-3.78-4.75h-.25a5.18,5.18,0,0,1-1.08.58c-.11.79-.5.9-.5,1.4s-.08.36-.08.5c0,.33.15.58.15,1.05a8.31,8.31,0,0,0,.25,1,2.36,2.36,0,0,0,1.8,1.26c1.12,0,2.7-1.91,2.91-2.7a4.29,4.29,0,0,0,.36-.79v-.29C132.06,47.37,129.32,46.14,128.42,46.14Z"/><path class="cls-1" d="M139.65,45.82a2.11,2.11,0,0,0-.1.68c0,1,.21,2,.21,3a8.22,8.22,0,0,0,.15,2c0,.72.14,1.44.1,2.16.11.18-.07.25.07.32,0,1.08.08,2.2.08,3.31,0,1.7-1.41,6.12-3.53,6.12l-.14-.11a6.2,6.2,0,0,0-.83.19c-.36-.22-.15-.11-.43-.11a1.37,1.37,0,0,1-.72-.36c-1.95-1.37-3.57-2.7-4.4-5a8.2,8.2,0,0,0,3.82,3.5c.29,0,.68.14,1,.14,2.63,0,2.7-5.51,3.1-7.38.07-.22-.18-.58,0-.76,0-.86,0-1.72,0-2.59,0-.57-.07-4.39-.21-4.68l-4.14.69a3.15,3.15,0,0,1-1.05.32c-.28-.14-1.08.32-1.4.36l-.22.15h-.5c-.83,0-.83-.76-1.15-1.19v-.29c0-1.91,2-1.73,3.17-2.12a2.32,2.32,0,0,0,.72.1c.46,0,1-.1,1.44-.1.86,0,1.69.1,2.55.1.15,0,.51,0,.51-.21a14.5,14.5,0,0,1-.11-2.09l-.11-.18c.22-1.26-.54-1.12-.54-2,0-.72.4-1.3.4-2a8.16,8.16,0,0,0-.08-1.41,4.46,4.46,0,0,0-.07-1.36v-.22l0-.79.07-.43-.14-.36a.62.62,0,0,0,.18-.47c0-.07-.15-.9-.18-1,.18-.25.18-.15.07-.47a3,3,0,0,0,0-.79c-.25-.47,0-.94-.39-1.37,0-.14.11-.5,0-.47-.1-.79,1.26-2.19,2.06-2.19.54,0,1.36,4.64,1.36,5.5a13.87,13.87,0,0,1,.33,2.74c.36.93.36,2.09.64,3.09,0,.18-.07.08.15.65a4.48,4.48,0,0,0,.07.69c0,.75-.72,1.44-1.26,1.9-.83,0-1.08.15-1.08,1a18.07,18.07,0,0,1,.07,2,43.82,43.82,0,0,0,7.45-1.08c.26,0,.33.36.33.54C146.24,44.49,141.13,45.39,139.65,45.82Z"/><path class="cls-1" d="M165.86,41.53a48.52,48.52,0,0,1-8.57,1.66.8.8,0,0,0-.5.22,12.6,12.6,0,0,1-.18,1.8l0,1c.11.25,0,1.51.08,1.58-.11,1.8.86,6.34,3.16,6.34,1.55,0,3.21-1.91,4.14-3,.15,0,.11,0,.11.11l-.29.47c-.11.25-.32.83-.65.68-.07.4-.35.43-.25.61l-.1.18c-.33,0-.29.26-.54.36,0-.32-.26.4-.33.51s-.54.14-.5.25a.91.91,0,0,0-.51.36c-.43-.07-.79.61-1.26.32-.21,0-.39.08-.61.08-2.59-.08-4.71-3.39-4.61-5.3a4.93,4.93,0,0,1-.18-1c.11-.07.08-.36,0-.43,0-.32,0-2.09,0-2.2a5.49,5.49,0,0,0,0-1.11,4.83,4.83,0,0,0,0-1.26h-.32c0,.14-.36,0-.43,0-.76-.1-1.19,1.05-2.2,1.05A1.27,1.27,0,0,1,150,43.55a1.94,1.94,0,0,1,1.9-1.66,2.27,2.27,0,0,1,1.08.26c.08-.08,0-.08.47.1l.79-.1c.08-.26,0-.54.15-.83a1.61,1.61,0,0,1,0-.69c-.18-.46,0-1-.1-1.44a2,2,0,0,0,0-1.18c.07-.11.07,0,0-.44a1.83,1.83,0,0,0,.07-.86,13.26,13.26,0,0,0,.36-1.4c0-.51,0-.4.07-.51a3.44,3.44,0,0,1,.36-1l.4-.18c0-.29.4-.5.54-.72a1.88,1.88,0,0,1,1.94-1c.62,0,1.34.18,1.34,1a12.75,12.75,0,0,1-.08,1.29l0,.25a6.55,6.55,0,0,0-.72,2l-.14.25c0,.75-.47,1.08-.47,1.83-.15.22-.11.08-.15.62a5.4,5.4,0,0,0-.79,2.77c-.07.14-.11.07.11.21,2.59-.18,4.32-.36,6.77-.61,0,0,2.12-.32,2.08-.29C166,41.39,166,41.43,165.86,41.53Z"/><path class="cls-1" d="M176,51.29c-.07,0-1.26,1.22-1.26,1.22-.39.29-.79.79-1.37.87a4.08,4.08,0,0,1-.61,0c-1.11,0-3.13-2-3.67-3.81-.36.72-.72,1.54-1,2.19-.22.11-.36.61-.36.79-.18.54-.15.69-.54.87a.56.56,0,0,0-.43.25c-.69.07-1-.18-1.26-.14-.79.07-2-1.48-2-2.31l-.11-1.15a15.63,15.63,0,0,1,.18-3.2c.29-1.69.43-3.42.65-5.11s.39-3.21.5-4.79c0-.11.18-.72.18-.79l-.07-.36c0-.47.28-1.66.25-1.91a.21.21,0,0,0,0-.15,1.38,1.38,0,0,1,1.37-1.29,1.57,1.57,0,0,1,1.66,1.37.32.32,0,0,0,.1.21c0,.51,0,.76,0,1.23a.78.78,0,0,1-.14.61c-.4.75-.47,1.44-.83,2.23a10.08,10.08,0,0,0-.25,1.19,7.55,7.55,0,0,0-.22,1.29,11.36,11.36,0,0,0-.18,2.06c.07.61-.21,1.33-.14,2,0,.43-.07.72,0,1.08a20.38,20.38,0,0,1,0,2.59,12.42,12.42,0,0,0,.07,1.59c.11,1.51.18,1.72.25,1.69.4,0,1.84-3,1.8-3.1a6,6,0,0,0-.18-.79c0-.18.43-.68.47-.83.5-.39.9-1.15,1.65-1.22l.44-.07c.72-.07,1.11.72,1.15,1.19.07.75-.4,1.54-.33,2.26a1.6,1.6,0,0,0,0,.25c0,.36.54,2.7,1.69,2.88a3.41,3.41,0,0,0,1.91-1.15,12.35,12.35,0,0,0,.86-1.08c.11-.11.11.54.11.54C176.41,50.78,176.12,51,176,51.29Z"/><path class="cls-1" d="M182.6,53a6.54,6.54,0,0,1-2.63.36c-.07,0-1.4-.11-1.47-.14a3.28,3.28,0,0,1-2.27-3.42l.07-1.37c0-.36.25-.61-.25-1a2.73,2.73,0,0,0-.68-.29c-.87-.32-.54-2.23.68-1.83.22.07.76.83.86.68a10.08,10.08,0,0,1,1.37-1.47c.54-.44,1-1,1.33-1.23.15-.11.33,0,.51-.14a3.34,3.34,0,0,1,2-.76,3.27,3.27,0,0,1,.9.29c.43.25,1.11.36,1.4.94.14.25,0,.68.32.79,0,.83.18.5-.1,1.19,0,.39.21.18-.11.61l-.15.39c-.32.36-.72.83-1,1.12a7.38,7.38,0,0,1-2.95,1l-.94-.07c-.36.07-.32.61-.32.61-.18.79.11.79.18,1.33,0,.76,1.29,1,1.76,1.08a6.41,6.41,0,0,0,2.92-.75c.14-.11.14-.47.5-.36C186.2,51.07,183.43,52.58,182.6,53Zm-3.42-5.76c.25.22.36.22.76.22.86,0,2.37-1.37,2.59-3.1,0-.14.07-.21,0-.21C181.27,44.05,179.86,44.63,179.18,47.22Z"/><path d="M206.27,57.57c-2.83,0-6.36-1.61-7.74-2.3L198,55l-.33-.63a3.31,3.31,0,0,1-1.83-1c-5.59-6.08-5.93-8.13-6.93-14.22l-.28-1.64v-.08a5.84,5.84,0,0,1,.16-1.83,6,6,0,0,0,.11-.63,15.47,15.47,0,0,1-.42-3.07,12.17,12.17,0,0,0-.24-2.11l-.11-.46.11-.45a4.57,4.57,0,0,1,1-1.9c.28-.35.57-.71.71-2.57a3.92,3.92,0,0,1,1.4-2.52,4.91,4.91,0,0,0,.65-.76l.19-.56.45-.35c3.77-3,7.51-4.55,11.12-4.55h.25c.48,0,4.37.93,4.4.94,4,1.08,8.65,5.53,8.65,9.62S214.48,33,210.62,33c-.19,0-.39,0-.6,0l-.44,0-3.34-1.83c-2.66,1.35-5.39,3.77-5.39,6.57a15.17,15.17,0,0,0,.14,1.69,17,17,0,0,1,.18,2.36,2.46,2.46,0,0,1,.27,1.4,2.55,2.55,0,0,0,0,.31c0,2.74,2.7,6.6,4.94,7.18h.24a4.63,4.63,0,0,1,1.06.15l.2,0c3.35,0,9.82-4,13.08-7.38l1-1.06,3.49,1.74-1,1.83C221.54,51.08,212.41,57.57,206.27,57.57Z"/><path d="M233.84,55.63c-2.69,0-6.39-4.17-6.39-6.54,0-.52,0-.52,0-1,0-.19,0-.45-.07-.83a4.54,4.54,0,0,1-1.07.13,4.62,4.62,0,0,1-2.22-.66h0a4.69,4.69,0,0,1-2.64-1.3l-.52-.56c-1.25-1.33-1.88-2-2-2.87,0-.1-.06-.23-.1-.37a9.05,9.05,0,0,1-.35-2.06v-1a6.65,6.65,0,0,1,1.33-3.66,10.32,10.32,0,0,0,.65-1.12l.35-.8.73-.24c.18-.1.56-.36.83-.54,1.11-.74,1.67-1.11,2.43-1.11h.1a3,3,0,0,1,1.41-.44A7.83,7.83,0,0,1,229.2,32a3.85,3.85,0,0,1,1.53,2.71v.87a3.15,3.15,0,0,1-.06.55v0l.49-.15c.25-.07.51-.15.76-.24l.34-.13h1.37c2.1,0,3.44,2.17,3.44,3.66a7.37,7.37,0,0,1-.09.93c0,.18-.06.36-.06.51a4.55,4.55,0,0,1-.15,1.47l-.07,3.27-.1.28s0,.34,0,.45,0,.37.07.56c.41-.36.91-.85,1.51-1.49a12.18,12.18,0,0,0,2-2.54c.24-.38.48-.75.75-1.14l.38-.53.62-.21a2.66,2.66,0,0,1,.88-.16,2.12,2.12,0,0,1,1.65.78,2.48,2.48,0,0,1,.36,2.23c0,.18-.09.42-.13.72v.1l0,.1a5.39,5.39,0,0,1-.67,1.53,3.85,3.85,0,0,0-.44.89l-.05.18-.08.16a9.64,9.64,0,0,1-.91,1.34c-.18.25-.48.65-.55.78h0c-.72,1.34-4.55,5.17-6.39,6l-.37.16Z"/><path d="M259.26,56c-2.55,0-4.1-2.18-5.1-4.37a4.16,4.16,0,0,1-1,.8c-.1.06-.26.15-.34.21l-.22,1-.85.29h0l-.59.49a7.37,7.37,0,0,1-3.66,1.48c-2.9,0-7.76-4.77-7.76-7.62a7.51,7.51,0,0,0-.19-2.1l-.1-.31v-.33a3.31,3.31,0,0,1,.54-1.73c0-.06,0-.12,0-.18a2.69,2.69,0,0,0,0-.32v-.47l.55-1.1a12.36,12.36,0,0,0,1.15-2.68l.16-.72.59-.44a17.19,17.19,0,0,0,2-2.56v-.28l.35-.51a12.41,12.41,0,0,1,3.1-2.86,12.86,12.86,0,0,0,1.11-.87,2.79,2.79,0,0,1,.81-.69l.08-.08.42-.19c2.2-1,3.8-1.65,4.92-1.65.91,0,4.61.71,5.77,2.69a4.73,4.73,0,0,1,.49,3.68l-.12.45-.3.36-.28.32a3.9,3.9,0,0,1,2.34,3.14,6.56,6.56,0,0,1-1,3.05,7.26,7.26,0,0,0-.42.86,24.66,24.66,0,0,0-.75,6.46,2.44,2.44,0,0,0,0,.27c1.8-1.27,5.19-6,6.13-8.47l1.82-4.81,2.19,5.49h0a5.26,5.26,0,0,1-.05,3,2.66,2.66,0,0,1-.23.54,6,6,0,0,1-1.38,2.57l-.07.72-.57.52a5.22,5.22,0,0,0-.83,1.18,13.66,13.66,0,0,1-.79,1.2l-.25.35-.43.24C265.11,54.74,261.87,56,259.26,56Zm-9.11-10.8a4,4,0,0,1,0,.69,22.16,22.16,0,0,0,2.48-4.11,2.54,2.54,0,0,1-.35-1.32,4.62,4.62,0,0,1,1.37-2.7h-.07a3.57,3.57,0,0,0-.47,0c-1.29,1.47-1.58,2.54-2.23,4.85C250.69,43.38,250.45,44.22,250.15,45.19Z"/><path d="M291.71,56.44a2.49,2.49,0,0,1-.61-.08l-.29-.07,0,0s-.62,0-.62,0c-2.09,0-5.92-2.86-6.1-3a10,10,0,0,1-1-1.32l-.36-.51-.35-.18-.27-.77c-.5-1.46-.93-2.88-1.3-4.28l-.1.15a18.25,18.25,0,0,1-1.6,2.2,3.57,3.57,0,0,1-.13.54h0c-.1.3-.28.9-.33,1.16V52.1H278a3.56,3.56,0,0,1-2.3,2.17l-.23.09-.26,0a7,7,0,0,1-.91,0,7.29,7.29,0,0,1-6-3.22,10.37,10.37,0,0,1-1.85-5.8c0-.62,0-1.22,0-1.84s0-1.34,0-2-.09-1.65-.14-2.45c-.06-1-.13-2-.15-3a2.94,2.94,0,0,1-.36-1.44,2.88,2.88,0,0,1,.62-1.81l.18-.42.39-.36c1-.86,3.49-2.87,5.42-2.87A4.81,4.81,0,0,1,276.14,31l.14.17.1.2a9.46,9.46,0,0,1,.61,1.73,8.35,8.35,0,0,0,.25.8l.49,1.22-.5.5v2.62a5.6,5.6,0,0,1-.22,1.37,4.56,4.56,0,0,0-.14.65v.83c.52-.64,1-1.18,1.41-1.6a2.16,2.16,0,0,0,.41-.74,6.8,6.8,0,0,1,.84-1.57l.09-.11.1-.1c1.54-1.54,3.43-3.11,5.81-3.11,3.31,0,5,3.39,5.09,5.79v.1a22.81,22.81,0,0,0,.1,2.48c0,.28.06.61.1,1.06v0a29.85,29.85,0,0,0,2.46,6.87A14.76,14.76,0,0,0,294.42,49c.24-.26.45-.5.65-.69l.58-.59h.83a2.24,2.24,0,0,1,.76.14h1.6v3.53l-.32.16a2.2,2.2,0,0,1-.18.43l-.09.18-.12.16c-.15.2-.29.42-.43.65a8.13,8.13,0,0,1-1.24,1.69l-.34.34h-.05a2,2,0,0,1-.81.49,4.45,4.45,0,0,1-2.59.75A3.18,3.18,0,0,1,291.71,56.44Z"/><path d="M304.43,55.89c-.36,0-.71,0-1,0a16.12,16.12,0,0,1-3.66-.49c-5.08-2.3-5.87-6.06-5.63-8.81l.13-2.55a3.09,3.09,0,0,1,0-.54l-.1,0a5.38,5.38,0,0,1-.53-.18,3.79,3.79,0,0,1-2.16-4.37,3.72,3.72,0,0,1,3.63-3.26,4.3,4.3,0,0,1,1.26.2,2.91,2.91,0,0,1,.81.45c.4-.4.79-.75,1.11-1l.26-.23.07-.15.34-.27a15.39,15.39,0,0,0,1.33-1.24A11.49,11.49,0,0,1,301.74,32a2.79,2.79,0,0,1,1.33-.48l.43-.27a7.38,7.38,0,0,1,4.29-1.41h0a7.51,7.51,0,0,1,2.87.86h0a5.65,5.65,0,0,0,.6.27,5.36,5.36,0,0,1,3,2.39,3.37,3.37,0,0,1,.33.93l.49.19.06,1.32a7.82,7.82,0,0,0,.08.81A3.11,3.11,0,0,1,315,38.5a2.47,2.47,0,0,1-.51,2l-.32.9-.68.75A22.45,22.45,0,0,1,311.63,44l-.06.06-.07,0a16.2,16.2,0,0,1-7.1,2.49h-.15l-.49,0v0a1.3,1.3,0,0,1,.06.12,4.92,4.92,0,0,1,.39,1.32,4.8,4.8,0,0,0,1.6.49,11.71,11.71,0,0,0,4.4-1,2.49,2.49,0,0,1,2.16-1.25,2.89,2.89,0,0,1,.81.12A3,3,0,0,1,315.71,49c.16,1.93-1.84,3.9-5.95,5.87A14.86,14.86,0,0,1,304.43,55.89Z"/><path class="cls-1" d="M206.27,55.57c-2.09,0-5-1.15-6.84-2.09-.8-1.51-1.44-.72-2.16-1.51-5.62-6.12-5.48-7.56-6.7-14.76-.07-.86.29-1.51.29-2.52-.58-1.94-.29-3.53-.72-5.4.36-1.51,1.44-.94,1.73-4.82,0-.72,1.58-1.66,1.94-2.74,2.88-2.3,6.34-4.18,10.08-4.1.07,0,3.38.72,3.89.86,3.17.86,7.2,4.61,7.2,7.7s-1.66,5-4.82,4.83l-1.45-.79c.87-1.44-.5-1.23-1.08-1.8-4,1.22-8.78,4.75-8.78,9.29,0,1.51.43,3,.29,4.6.43.58.29.36.29,1.16,0,3.6,3.45,8.71,6.91,9.21.43-.14,1,.15,1.44.15,4.46,0,11.45-4.68,14.62-8l.28.15C220.16,49.45,211.6,55.57,206.27,55.57Z"/><path class="cls-1" d="M241.55,46.5c-.22.43-1.23,1.66-1.44,2.09-.29.65-3.89,4.39-5.4,5h-.87c-1.51,0-4.39-3.24-4.39-4.54,0-.93,0-.43-.14-2.59l.14-2.16c-.14,0-.14-.29-.29-.29s-1.37,1.37-2.88,1.37a2.1,2.1,0,0,1-1.22-.43c-.22-.22-1.59-.22-2.16-.87a13.9,13.9,0,0,1-2-2.37,14.44,14.44,0,0,1-.43-2.16v-1c0-1.51,1.15-2.52,1.8-4,.43-.15,2.23-1.51,2.52-1.51.07,0,.07.14.22.14s1.15-.58,1.29-.58a17.46,17.46,0,0,1,1.87,1c.22.07.58.94.58,1v.87c0,.14-.07.36-.07.64a8.42,8.42,0,0,1-.58,1.52c-1.44,1.15-2.23,1.29-2.23,2.73a4.79,4.79,0,0,0,.65,1.95.42.42,0,0,0,.21.57,4.45,4.45,0,0,0,2.16-1.58c0-.15-.36-1.08-.36-1.15s2.09-1.73,2.31-2c.57-.22,1.22-.36,1.8-.58h1c.79,0,1.44,1.08,1.44,1.66,0,.36-.15,1-.15,1.44a2.55,2.55,0,0,1-.14,1.15l-.07,3.24a4.47,4.47,0,0,0-.15,1.08c0,.36.15,1.15.15,1.3l-.08.79c0,.07.29,1.58.51,1.58,1.51-.14,3.45-2.16,4.46-3.24a20.75,20.75,0,0,0,2.88-3.88c.65-.22.29.21.15,1.44C242.48,44.84,241.83,45.49,241.55,46.5Z"/><path class="cls-1" d="M269,44.34a4,4,0,0,1-1.44,2.52l-.07.72a17.43,17.43,0,0,0-1.88,2.66l-.64.36c-.8,2.24-3.46,3.39-5.69,3.39-2.52,0-3.82-4.54-4.47-6.41h-.07c-.5.65-.86,1.73-1.73,1.94-.07.58-.21-.07-.21.51s-1.66.72-1.95,2.09c-.43.14-.93.28-1,.79a5.8,5.8,0,0,1-2.37,1c-1.73,0-5.76-3.82-5.76-5.62a9.08,9.08,0,0,0-.29-2.74,2.19,2.19,0,0,1,.5-1.08c0-.5.08-.72.08-1.15a18.44,18.44,0,0,0,1.65-3.81c.58-.44,2.81-3.17,2.81-3.82,1.08-1.59,3.46-2.74,4.18-3.67,0-.08.36-.22.43-.29a16.21,16.21,0,0,1,4.18-1.51c.93,0,3.74.86,4.1,1.8a2.61,2.61,0,0,1,.22,2.08c-1.66,2-2.67,1.81-5,1.81a4,4,0,0,0-2.45.07c-2.6,2.73-2.45,4.32-4,9.07a3.27,3.27,0,0,1-.51,2.38v.64a2.56,2.56,0,0,1,.22,1.3v.72l.21.36h.22c3.1-2.09,5.26-5.54,6.7-8.93-.15-.43-.65-.57-.65-1.08,0-.72,2.23-2.88,2.88-2.73a4.51,4.51,0,0,1,1.66-.58c.72,0,2.3,1,2.3,1.73,0,1.08-.94,2.23-1.3,3.24a26.78,26.78,0,0,0-.86,7.13,5.62,5.62,0,0,0,.5,2.37,4,4,0,0,0,.87.22c2.81,0,7.63-7.42,8.64-10.08l.29.72C269.27,42.4,269.34,44.34,269,44.34Z"/><path class="cls-1" d="M275,47.29a42,42,0,0,1,4.75-6.41c.8-.79.8-1.65,1.45-2.52,1.22-1.22,2.73-2.52,4.39-2.52,2,0,3,2.45,3.09,3.89a33.22,33.22,0,0,0,.22,3.89c.07.22,2.23,8.86,4.1,8.86,1.3,0,2.67-1.88,3.53-2.74.07,0,.22.14.36.14v.29c-.14.07-.07.51-.29.94A18.84,18.84,0,0,1,295,53.27c-.43.14-.29.5-.5.29a2.71,2.71,0,0,1-2.09.72c-.22,0-.58.21-.86.14a3.23,3.23,0,0,0-1.44-.14c-1.16,0-4.47-2.24-4.68-2.45s-1.37-1.95-1.52-2A55.78,55.78,0,0,1,281.86,42a5.84,5.84,0,0,0-1.58,1.37,5,5,0,0,0-1.22,1.8c-.29.43-1.52,2.31-1.8,2.31s-.15,1-.22,1a11.5,11.5,0,0,0-.43,1.66c-1.23,0,.57,1.44-1.66,2.3-4.32.51-6.55-3.81-6.55-7,0-1.3-.07-2.52-.07-3.89-.07-2.16-.29-4-.29-6,0-.29-.36-.37-.36-.94s.29-.58.5-1.08c.58-.51,2.88-2.38,4.11-2.38a2.82,2.82,0,0,1,2.3,1.08c.36.72.51,1.66.79,2.38-.21.21-.14,1.15-.14,1.15v2.45c0,.5-.36,1.37-.36,2v2.95C274.88,44.2,274.88,46.21,275,47.29Z"/><path class="cls-1" d="M308.86,53.12a13.06,13.06,0,0,1-5.25.72c-.15,0-2.81-.21-2.95-.28-3-1.37-4.83-3.53-4.54-6.84l.14-2.74c-.07-.72.51-1.22-.5-2a4.73,4.73,0,0,0-1.37-.57c-1.73-.65-1.08-4.47,1.37-3.67.43.14,1.51,1.65,1.73,1.36.79-1.36,2.59-2.66,2.73-2.95,1.08-.86,2-2,2.67-2.45.29-.21.65-.07,1-.29,1.15-.64,1.8-1.44,4-1.51a6.78,6.78,0,0,1,1.8.58c.86.5,2.23.72,2.8,1.87.29.5.08,1.37.65,1.59.07,1.65.36,1-.21,2.37-.08.79.43.36-.22,1.23l-.29.79c-.65.72-1.44,1.65-2.09,2.23a14.55,14.55,0,0,1-5.9,2.09l-1.87-.15c-.72.15-.65,1.23-.65,1.23-.36,1.58.22,1.58.36,2.66,0,1.51,2.59,2.09,3.53,2.16A13,13,0,0,0,311.6,49c.29-.22.29-.94,1-.72C316.06,49.31,310.52,52.33,308.86,53.12ZM302,41.6c.51.44.72.44,1.52.44,1.72,0,4.75-2.74,5.18-6.2.07-.28.14-.43,0-.43C306.2,35.27,303.39,36.42,302,41.6Z"/></g></g></svg>