<svg xmlns="http://www.w3.org/2000/svg" viewBox="0 0 407.51 56.81"><defs><style>.cls-1{fill:#231f20;}.cls-2{fill:#ed1c24;}</style></defs><g id="Layer_2" data-name="Layer 2"><g id="Layer_1-2" data-name="Layer 1"><g id="logo_h_color"><path class="cls-1" d="M288.35,53.87a80.55,80.55,0,0,0-16.57-13.54c0,1,.14,6.23.14,6.23l-2.64,1c-3.63,1.38-7.13,2.64-10.4,3.74l-6.56,2.21,1.36-6.78c.07-.37.14-.76.21-1.15-6.17,3.39-11.72,5-16.8,5-6.49,0-11.66-2-15.37-6.1-3.53-3.82-5.33-9-5.33-15.42a25.7,25.7,0,0,1,4.89-15.61,24,24,0,0,1,13.62-9,19.92,19.92,0,0,1,5-.66,23.39,23.39,0,0,1,12.91,4.31c4.27-1,8.95-1.8,13.92-2.46l4.42-.58,0,2.06,12.68-2.71L286.15,4,287.7,5.7c2.86,3.17,4.31,6.38,4.31,9.54a12,12,0,0,1-3.55,8.16c1.63-.22,3.4-.44,5.29-.64a83.64,83.64,0,0,1,7.63-8.86c3.09-3.05,6.13-6.07,9.17-9.11L315.34,0l2.77,9.56,5.8-1.33c4.36-1,9.16-1.85,14.26-2.53l2.41-.32,1.4,2,1.32,1.93,4.62-1.08c4.29-1,9.12-1.85,14.34-2.53l4.46-.58s.09,6.75.1,7.87a25,25,0,0,1,1.65-2,21.09,21.09,0,0,1,16.16-6.95c6.9,0,13.14,2.76,18.55,8.21l3.26,3.29-7.55,5.57c2.49-.08,5.07-.14,7.75-.2l.87,7.92-2.88.58,2.46,8.27-2,1.69c-9.18,7.55-17.35,11.22-25,11.22a16.74,16.74,0,0,1-12.66-5.23l0,1.16-2.63,1c-3.63,1.38-7.13,2.64-10.4,3.74l-6.86,2.31,1.69-7a47,47,0,0,0,1.06-8A49.55,49.55,0,0,0,343,30.32c.06,5.82.15,11.15.26,15.94l.07,3-2.85.92a22,22,0,0,1-6.28.75,12.53,12.53,0,0,0-3.78.38l-6.67,2.39.79-3.93a11.64,11.64,0,0,1-4,1c-2.79,0-4.93-1.63-6.59-3.8l-8.33,3.18a40.65,40.65,0,0,1-10.48,2.77l-3.95,4ZM300.5,36.46a10.92,10.92,0,0,0-.11,1.45c0,2.36.73,3.85,4.48,4.5l7,1.21c-.49-.93-.91-1.87-1.28-2.75-.62-1.54-1.41-3.82-2.4-6.94C305.51,34.71,302.92,35.56,300.5,36.46ZM233,18.47c-1.74,0-2.2.58-2.38.79a5.41,5.41,0,0,0-.94,3.48,12.88,12.88,0,0,0,4,9.5,12.88,12.88,0,0,0,9.51,4c3.55,0,7.48-1.21,11.7-3.6v-.77a94.61,94.61,0,0,0-.55-11.38,7.22,7.22,0,0,0-.15-.73c-.65.32-1.55.78-2.76,1.44a25.29,25.29,0,0,0-5.67,4.26l-.12.12-.13.1a5,5,0,0,1-3.2,1.22,4.66,4.66,0,0,1-4.82-4.7,6.15,6.15,0,0,1,.47-2.27l-.66-.24A16.27,16.27,0,0,0,233,18.47ZM381.92,34.61a12.37,12.37,0,0,0,4.65.94c3.46,0,7.91-1.62,13.23-4.82l.75-.45c-5.06,1-8.3,1.69-9.67,2C387.69,33,384.69,33.79,381.92,34.61Zm-99.27-5.42c1.35,1.69,2.72,3.45,4.1,5.3l.61-1.24c-1-.75-2.05-1.63-3.16-2.64Zm43.09.82q.31.52.63,1c0-.37,0-.74,0-1.11Zm52.51-11.42a2.66,2.66,0,0,0-2.49,1.2,5.69,5.69,0,0,0-1,2.58q4.81-.39,10.65-.68C382,19.2,379.67,18.59,378.25,18.59ZM319.8,15.34c.63,2.12,1.27,4.05,1.9,5.77l4.13-.1c0-.17,0-.34-.07-.52a5.3,5.3,0,0,0-.88-2.36q-1.53-1.64-3-3.32l-3.25-3.61C319,12.58,319.39,14,319.8,15.34Zm-48.37,5a5.88,5.88,0,0,0,1.64-2.51l-1.68.21C271.4,18.67,271.42,19.44,271.43,20.3Z"/><path class="cls-2" d="M386.57,39.55a16.66,16.66,0,0,1-7.27-1.73,13.69,13.69,0,0,1-5.62-4.65A124.43,124.43,0,0,1,390,28.36q2.94-.64,16.7-3.4-22.56.46-35.74,1.76a14.26,14.26,0,0,1-.29-2.87,10.66,10.66,0,0,1,1.81-6.39,6.68,6.68,0,0,1,5.75-2.87q5.63,0,13.36,7l8.73-6.44q-7-7-15.71-7a17.18,17.18,0,0,0-13.24,5.68,21.55,21.55,0,0,0-5.62,13.48c-1.1.17-2,.29-2.71.38q-.17-8.94-.28-18a139.61,139.61,0,0,0-13.95,2.46q1.94,2.17,3,3.16a8.55,8.55,0,0,1,2,4.69,90.73,90.73,0,0,1,.53,11.84V34a76.66,76.66,0,0,0-3.93-6.68c-1.44-2.15-2.87-4.32-4.27-6.51q-5.28-8-7.44-11.13c-5,.66-9.63,1.48-13.89,2.46,1.05,1.17,2.11,2.32,3.16,3.46A9.25,9.25,0,0,1,329.73,20q.28,2.25.45,4.95c-5.46.1-9.2.19-11.17.27A89.6,89.6,0,0,1,316,16.47q-1.29-4.39-2.58-8.85-4.56,4.58-9.14,9.08A72.09,72.09,0,0,0,296,26.54q-5.16.54-9.08,1.12a26.9,26.9,0,0,0,5.74,4.22c-2.74,4.77-4.23,8.56-4.51,11.38A179.62,179.62,0,0,0,275.59,27a31.61,31.61,0,0,0,7.91-4.45Q288,18.93,288,15.24q0-3.22-3.28-6.86-15.28,3.28-17.4,3.69l-.06-2.4q-7.5,1-13.89,2.46l3.17,3.52A9,9,0,0,1,258.3,20a96.35,96.35,0,0,1,.59,11.9c0,1.05,0,2.06,0,3.06q-8.34,5.3-15.66,5.31a16.84,16.84,0,0,1-12.34-5.18,16.87,16.87,0,0,1-5.18-12.33,9.2,9.2,0,0,1,1.84-6A6.68,6.68,0,0,1,233,14.47a19.46,19.46,0,0,1,5.69,1.47Q243,17.51,243,18.58a8.91,8.91,0,0,1-.76,1.61,5.27,5.27,0,0,0-.76,2c0,.47.27.7.82.7a1.07,1.07,0,0,0,.64-.29,29.36,29.36,0,0,1,6.57-4.92c3-1.64,4.9-2.5,5.68-2.58q-7.9-7.27-15.29-7.27a15.63,15.63,0,0,0-4,.53,20,20,0,0,0-11.42,7.5,21.66,21.66,0,0,0-4.11,13.24q0,8.08,4.28,12.72,4.4,4.8,12.42,4.8,9.1,0,21.65-8.81a68.7,68.7,0,0,1-1.14,9.69q4.86-1.64,10.26-3.69-.18-7.38-.18-10.14,12,5.34,23.55,17.4l1.29-1.28-.68-1a9.49,9.49,0,0,0,1.68.16q3.93,0,10.66-2.58-7.79-1.35-7.79-8.44a16.61,16.61,0,0,1,.65-4.39,109,109,0,0,1,13.88-4.46c1.49,4.93,2.62,8.34,3.4,10.26q3.1,7.38,6.21,7.38c1.06,0,3.65-1,7.79-2.93l1.47-.73c-.19,1.59-.42,3.08-.7,4.48a16.43,16.43,0,0,1,5.09-.61,19,19,0,0,0,5.1-.56q-.24-10.6-.35-24.43a57.64,57.64,0,0,1,15.41,15.52,53.46,53.46,0,0,1-1.23,10.08q4.86-1.64,10.25-3.69c-.1-5.13-.2-10.29-.29-15.45,1.17,1,2.08,1.76,2.7,2.21a18.78,18.78,0,0,0,3.8,11.25,12.87,12.87,0,0,0,10.49,4.8q9.9,0,22.44-10.31l-.64-2.17Q392.89,39.55,386.57,39.55Zm-119-12.42q-.22-12.36-.23-12.54a55,55,0,0,1,6.74-.88c2.07,0,3.1,1.12,3.1,3.34s-1.07,4.36-3.22,6.39A14.7,14.7,0,0,1,267.56,27.13Zm32.4-.94a46.37,46.37,0,0,1,7.33-10.54q1.17,4.92,2.58,9.9C305.45,25.82,302.15,26,300,26.19Zm19.81.88q6.63-1.26,10.42-2,.18,3.21.18,7.06t-.25,7.36C326.2,38.06,322.75,33.92,319.77,27.07Z"/><path class="cls-1" d="M111.88,48.29a78.15,78.15,0,0,0,1.21-15,92.11,92.11,0,0,0-.55-11.25,5.1,5.1,0,0,0-.92-2.34c-1-1.1-2.05-2.22-3.07-3.36l-4.53-5,6.59-1.54c4.13-1,8.93-1.81,14.27-2.53l4.42-.59,0,2,17.84-3.82,1.54,1.75a14.82,14.82,0,0,1,3.76,10.15c0,5.79-2.26,11.89-6.72,18.14a45.24,45.24,0,0,1-13.7,12.9A45.4,45.4,0,0,1,116.46,53l-5.73,1Zm17.93-15c.3-.61.6-1.25.89-1.93A31.71,31.71,0,0,0,133.77,19v-.2c-.88.12-2.21.32-4.19.68Z"/><path class="cls-1" d="M7.76,48.29A77.39,77.39,0,0,0,9,33.43,94.14,94.14,0,0,0,8.41,22a4,4,0,0,0-.91-2.21c-1-1.18-2-2.35-3-3.47L0,11.38,6.52,9.8A136.42,136.42,0,0,1,20.83,7.26l4.44-.58.34,19.64,7.16-1.06c2.2-.33,4.69-.65,7.44-1a81.34,81.34,0,0,1,7.63-8.85C50.93,12.41,54,9.39,57,6.35L61.8,1.56s2.47,8.54,2.77,9.56l5.8-1.33c4.36-1,9.16-1.85,14.26-2.53L87,6.94l1.39,2c.38.53.82,1.18,1.33,1.93l4.62-1.08c4.29-1,9.12-1.85,14.34-2.53l4.45-.58.07,4.49c.15,11.42.35,22.91.58,34.13l.06,2.82-2.64,1c-3.62,1.38-7.12,2.64-10.39,3.75L94,55.18l1.69-7a47.93,47.93,0,0,0,1.06-8,48.78,48.78,0,0,0-7.27-8.24c.07,5.81.16,11.15.27,15.94l.07,3L87,51.71a21.33,21.33,0,0,1-6.28.75,13.13,13.13,0,0,0-3.79.38l-6.67,2.39L71,51.31a11.55,11.55,0,0,1-4,.95c-2.79,0-4.93-1.64-6.59-3.8l-8.33,3.18c-5,1.91-9,2.84-12.09,2.84-4.93,0-8.28-2.39-9.2-6.4A56,56,0,0,0,22,52.2l-1.75,1.07-1.89-.8a18.32,18.32,0,0,1-1.78-.87c-1,.34-2.15.75-3.5,1.24L6.35,55.25ZM47,38a10.8,10.8,0,0,0-.11,1.45c0,2.36.73,3.85,4.47,4.49l7,1.22c-.48-.94-.9-1.88-1.27-2.76-.63-1.53-1.41-3.81-2.4-6.93C52,36.27,49.38,37.12,47,38ZM25.8,37.11c2.13-.18,4.52-.35,7.15-.5.27-.59.56-1.19.87-1.81a41,41,0,0,1-3.16-2.63l-5-4.58Zm46.4-5.55c.21.35.42.68.63,1,0-.37,0-.74,0-1.11ZM66.26,16.9c.63,2.11,1.27,4.05,1.9,5.77l4.13-.1c0-.18-.05-.35-.07-.52a5.37,5.37,0,0,0-.88-2.36c-1-1.09-2-2.2-3-3.33l-3.24-3.61C65.45,14.14,65.85,15.52,66.26,16.9Z"/><path class="cls-2" d="M95.29,13.69c1.29,1.44,2.29,2.5,3,3.16a8.52,8.52,0,0,1,2,4.69,90.56,90.56,0,0,1,.53,11.83v2.17q-1.47-2.86-3.93-6.68c-1.44-2.15-2.87-4.31-4.27-6.5q-5.28-8-7.45-11.13-7.5,1-13.88,2.46c1,1.17,2.11,2.32,3.16,3.45a9.39,9.39,0,0,1,1.76,4.4c.19,1.49.34,3.15.45,4.94-5.46.11-9.2.2-11.17.27a85.27,85.27,0,0,1-3-8.73q-1.29-4.39-2.58-8.85-4.58,4.58-9.14,9.09a71.49,71.49,0,0,0-8.26,9.84q-5.16.52-9.08,1.11a26.56,26.56,0,0,0,5.74,4.22,48.19,48.19,0,0,0-3.42,7c-5.64.28-10.26.63-13.81,1.05l-.52-30.29A131.12,131.12,0,0,0,7.46,13.69c1,1.17,2.09,2.36,3.1,3.57a8,8,0,0,1,1.82,4.28A98,98,0,0,1,13,33.43a80.63,80.63,0,0,1-1.29,15.65q3.57-1.29,5.39-1.88a13.75,13.75,0,0,0,2.81,1.58,75.08,75.08,0,0,1,15.2-6.44,12.72,12.72,0,0,0-.55,3.4q0,4.74,5.45,4.74,3.92,0,10.66-2.58c-5.19-.89-7.79-3.71-7.79-8.43a17.06,17.06,0,0,1,.64-4.4,109.73,109.73,0,0,1,13.89-4.45Q59.6,38,60.78,40.87q3.11,7.4,6.21,7.39,1.58,0,7.79-2.93l1.47-.73c-.19,1.58-.42,3.08-.71,4.48a16.8,16.8,0,0,1,5.1-.62,18.17,18.17,0,0,0,5.1-.56q-.24-10.6-.35-24.43A57.67,57.67,0,0,1,100.8,39a53.68,53.68,0,0,1-1.23,10.08q4.86-1.65,10.25-3.69-.34-16.93-.58-34.16A139.61,139.61,0,0,0,95.29,13.69ZM46.42,27.75A46.66,46.66,0,0,1,53.75,17.2q1.17,4.92,2.58,9.9C51.91,27.38,48.61,27.59,46.42,27.75Zm19.81.88q6.63-1.27,10.42-2,.18,3.21.18,7.06c0,2.62-.08,5.06-.25,7.35Q70.7,38.89,66.23,28.63Z"/><path class="cls-2" d="M145.74,9.29l-20.27,4.34-.06-2.4q-7.86,1-13.89,2.46c1.06,1.17,2.11,2.32,3.17,3.45a9.05,9.05,0,0,1,1.81,4.4,94.14,94.14,0,0,1,.59,11.77,81.32,81.32,0,0,1-1.29,15.77A41.52,41.52,0,0,0,130,44.39a41.41,41.41,0,0,0,12.48-11.78q6-8.37,6-15.82A10.89,10.89,0,0,0,145.74,9.29ZM134.37,32.9q-3.63,8.39-8.38,11.2l-.47-27.95a69,69,0,0,1,9.79-1.53q2.46,0,2.46,4.34A35.37,35.37,0,0,1,134.37,32.9Z"/><path class="cls-1" d="M152.8,39.58a6.29,6.29,0,0,1-4.44-2.46,7.72,7.72,0,0,1-1.55-4.88,11.8,11.8,0,0,1,.46-3.17,14.3,14.3,0,0,1,1.23-3,16.74,16.74,0,0,1,1.83-2.71,14.44,14.44,0,0,1,2.38-2.26,7.76,7.76,0,0,1,4.58-1.73h.63l.55.3a6.45,6.45,0,0,1,2.11,1.91c1.24.28,3.23,1.35,3.23,5.21a12.91,12.91,0,0,1-.76,4.44A13.57,13.57,0,0,1,161,35a12.87,12.87,0,0,1-7.36,4.55l-.39.08Zm3-9.19-.27.51A4.11,4.11,0,0,0,155.8,30.39Z"/><path class="cls-1" d="M163,47a3.91,3.91,0,0,1-2.35-2.68l-1.33-.76.22-1.73c.17-1,.35-2.11.56-3.17s.47-2.28.78-3.65.71-2.92,1.19-4.71c.24-.89.5-1.87.8-2.94h-.06l-1-1a3.38,3.38,0,0,1-.79-1.27,3.8,3.8,0,0,1-.22-1.23V22.27l1.57-.63a9.49,9.49,0,0,1,1.65-.45l.67-.13a27.87,27.87,0,0,1,1.31-3,19,19,0,0,1,2.32-3.57A11,11,0,0,1,171.32,12a7.28,7.28,0,0,1,3.67-1c.23,0,.45,0,.67,0l.39-.16a4.9,4.9,0,0,1,1.64-.32,4.17,4.17,0,0,1,2.34.83l1.91,1.3-1.15,2c0,.1-.16.32-.34.78s-.27.78-.37,1.16l-.05.17a8.26,8.26,0,0,1-2.41,4l-.68.54h-.87a2.79,2.79,0,0,1-2-.92l-.08.2.63.59a3.52,3.52,0,0,1,1,1.94,8.91,8.91,0,0,1,.19,1.4l.15,2.65h-4.15q-.81,2.43-1.55,4.71c-.65,2-1.24,3.91-1.75,5.63s-.95,3.23-1.32,4.58-.6,2.34-.75,3.11l-.57,3Z"/><path class="cls-1" d="M184.8,39.91a6.44,6.44,0,0,1-2.42-.48,8.84,8.84,0,0,1-1.92-1,7,7,0,0,1-1.57-1.59,4.37,4.37,0,0,1-.85-2.53,12.9,12.9,0,0,1,.24-2.26c.14-.8.34-1.68.6-2.62s.55-1.85.89-2.84l0-.09-.23-.28a4.18,4.18,0,0,1-.82-1.87,8,8,0,0,1-.17-1.51V19.87l2.89.44a7.84,7.84,0,0,0,.94.09l.32-.54c.38-.63.75-1.2,1.1-1.73a17,17,0,0,1,1.1-1.45,5.37,5.37,0,0,1,1.27-1.16l.6-.36h.7a6.14,6.14,0,0,1,1.33.16c.38.09.78.2,1.19.34a11.08,11.08,0,0,1,1.11.45,3.87,3.87,0,0,1,1.41,1l1.31,1.56-1.27,1.6-.69.89,0,0a3.45,3.45,0,0,1,.8,1.22,3.77,3.77,0,0,1,.26,1.39v1.71l-1.59.62a11.26,11.26,0,0,1-2.88.66c-.22.46-.43.93-.62,1.4-.36.87-.66,1.72-.91,2.53a20,20,0,0,0-.51,2l2-1.6L190,33.4a3.73,3.73,0,0,1,.59,1.44l.16,1-.55.81a5.58,5.58,0,0,1-1.1,1.17c-.36.29-.73.57-1.14.84a11.37,11.37,0,0,1-1.27.75,4.72,4.72,0,0,1-1.53.51l-.15,0Z"/><path class="cls-1" d="M191.16,40A2.75,2.75,0,0,1,189,38.82a4.53,4.53,0,0,1-.64-1.08c-.11-.26-.21-.52-.31-.78a4.4,4.4,0,0,1-.27-1.43,19.39,19.39,0,0,1,.24-2.84c.15-1,.37-2.12.66-3.28s.62-2.32,1-3.54.83-2.47,1.31-3.7.91-2.25,1.47-3.4,1.17-2.26,1.83-3.36,1.33-2.14,2-3.13,1.46-1.95,2.18-2.78l.75-.85h1.13a7.22,7.22,0,0,1,1.56.17,10.77,10.77,0,0,1,1.43.42,8.37,8.37,0,0,1,1.41.68,6.35,6.35,0,0,1,1.15.89l1.75,1.75-1.73,1.77a51.5,51.5,0,0,0-3.85,4.44c-.37.48-.71.94-1,1.4a5.39,5.39,0,0,1,1.55-.25,6,6,0,0,1,2.92.84,8.11,8.11,0,0,1,2.31,2l1.33,1.67L207.71,26A20.24,20.24,0,0,0,206,28.19c-.62.9-1.19,1.81-1.7,2.71-.31.55-.59,1.08-.82,1.57l.43.69a4.11,4.11,0,0,1,.43.88,3.06,3.06,0,0,1,.15.93A2.84,2.84,0,0,1,203,37.43a9.69,9.69,0,0,1-1.14.61c-.38.17-.75.32-1.12.46a4.43,4.43,0,0,1-1.61.34,3.64,3.64,0,0,1-1.8-.47,4.16,4.16,0,0,1-1.25-1,4.36,4.36,0,0,1-.75-1.24c-.06-.15-.11-.31-.16-.47A23,23,0,0,0,194,37.87a3.54,3.54,0,0,1-.81,1.2A2.85,2.85,0,0,1,191.16,40Z"/><path class="cls-1" d="M209.56,39.7a7.39,7.39,0,0,1-4.79-2.32,7,7,0,0,1-1.8-4.75,12.39,12.39,0,0,1,.43-3.16,15,15,0,0,1,1.16-3,16.32,16.32,0,0,1,1.69-2.63,14.1,14.1,0,0,1,2.15-2.21,11.18,11.18,0,0,1,2.52-1.59,7.35,7.35,0,0,1,3-.67h.17l.16,0a6.37,6.37,0,0,1,4.22,2.64l.59.75-.06,1a12.91,12.91,0,0,1-.84,4,9.77,9.77,0,0,1-1.39,2.38l.24.21c.27.25.51.49.71.71l1.34,1.52-1.22,1.63a16.7,16.7,0,0,1-3.47,3.5,10.88,10.88,0,0,1-4,1.94l-.42.1Z"/><path class="cls-2" d="M153.07,37.19a3.81,3.81,0,0,1-2.73-1.5,5.33,5.33,0,0,1-1-3.36,9.25,9.25,0,0,1,.36-2.49,11.73,11.73,0,0,1,1-2.5,13.69,13.69,0,0,1,1.56-2.3,11.36,11.36,0,0,1,2-1.86A5.28,5.28,0,0,1,157.3,22a5.33,5.33,0,0,1,1.89,2.13,1.14,1.14,0,0,0,.27,0h.27q1.59,0,1.59,2.82a10.46,10.46,0,0,1-.62,3.59A11,11,0,0,1,159,33.53a10.17,10.17,0,0,1-2.61,2.32A10.34,10.34,0,0,1,153.07,37.19Zm1.53-9.45a13.77,13.77,0,0,0-1,1.5,14.38,14.38,0,0,0-.78,1.64,10.7,10.7,0,0,0-.51,1.58,6.15,6.15,0,0,0-.18,1.37,4,4,0,0,0,.24,1.38q.24.66.54.75a6.67,6.67,0,0,0,2.47-1.12,8.34,8.34,0,0,0,2-2.06,10.53,10.53,0,0,0,1.3-2.79,12,12,0,0,0,.46-3.33,6.58,6.58,0,0,0-.09-1.23,2.27,2.27,0,0,0-.3-.78,6.49,6.49,0,0,0-2.36,1.26A12.23,12.23,0,0,0,154.6,27.74Z"/><path class="cls-2" d="M164,44.81a1.41,1.41,0,0,1-.9-1.14,1.83,1.83,0,0,0-1-1.32q.24-1.53.54-3.09c.2-1,.45-2.22.76-3.54s.7-2.88,1.17-4.65,1.07-3.9,1.79-6.42h-1.56a5.1,5.1,0,0,0-1.11.12.88.88,0,0,1-.2-.33,1.15,1.15,0,0,1-.07-.39,8.83,8.83,0,0,1,1.23-.32c.62-.12,1.3-.24,2-.34a26.51,26.51,0,0,1,1.65-4.1,16.94,16.94,0,0,1,2-3.1,8.62,8.62,0,0,1,2.28-2,4.83,4.83,0,0,1,2.43-.69,5.12,5.12,0,0,1,.69,0,4.26,4.26,0,0,0,.51,0,3,3,0,0,1,.72-.38,2.57,2.57,0,0,1,.78-.16,1.81,1.81,0,0,1,.93.39,8.1,8.1,0,0,0-.51,1.14,14.3,14.3,0,0,0-.45,1.41,6.36,6.36,0,0,1-1.59,2.87q-.33,0-.36-.87a6.08,6.08,0,0,0-.18-1.22,2.55,2.55,0,0,1-.17-.48,2.7,2.7,0,0,1,0-.54,3.89,3.89,0,0,1,0-.44c0-.17.06-.45.12-.85a1.7,1.7,0,0,0-1.13.63,8.83,8.83,0,0,0-1.29,1.77,25.44,25.44,0,0,0-1.36,2.72c-.46,1.06-.9,2.22-1.32,3.49h2.52a1.27,1.27,0,0,1,.25.63,6.6,6.6,0,0,1,.14,1H170q-1.14,3.38-2.13,6.45t-1.77,5.68c-.52,1.73-1,3.28-1.34,4.64S164.12,44,164,44.81Z"/><path class="cls-2" d="M181.48,24.65a2,2,0,0,1-.27-.77,5,5,0,0,1-.12-1,9.87,9.87,0,0,0,1.5.12h1.32c.3-.59.62-1.18,1-1.77s.69-1.11,1-1.6a15,15,0,0,1,.93-1.23,3.72,3.72,0,0,1,.68-.65,3.07,3.07,0,0,1,.76.11c.31.07.63.16.95.26s.61.23.87.35a1.56,1.56,0,0,1,.54.36c-.6.75-1.12,1.45-1.54,2.1s-.9,1.39-1.4,2.22h1.21a8.86,8.86,0,0,0,1.25-.09,1.18,1.18,0,0,1,.24.37,1.31,1.31,0,0,1,.09.47,9.9,9.9,0,0,1-3.57.57c-.5,1-.95,1.92-1.34,2.87s-.72,1.87-1,2.75a24.74,24.74,0,0,0-.63,2.5,11.21,11.21,0,0,0-.22,2.11q0,1.32,1,1.47a7,7,0,0,0,1.71-.45,5.67,5.67,0,0,0,1.44-.84,1.25,1.25,0,0,1,.21.45,3.25,3.25,0,0,1-.62.63c-.29.23-.6.47-.94.7a10.53,10.53,0,0,1-1,.58,2.45,2.45,0,0,1-.72.26,4,4,0,0,1-1.5-.3,6.23,6.23,0,0,1-1.37-.75,4.31,4.31,0,0,1-1-1,1.92,1.92,0,0,1-.39-1.1,10.79,10.79,0,0,1,.19-1.82c.13-.73.32-1.52.56-2.38s.52-1.77.84-2.71.67-1.87,1.05-2.79Z"/><path class="cls-2" d="M190.24,35.63a17.47,17.47,0,0,1,.21-2.48c.14-.95.34-2,.61-3s.59-2.21,1-3.39.79-2.36,1.25-3.54.86-2.13,1.39-3.21,1.11-2.14,1.73-3.18,1.26-2,1.93-3,1.35-1.8,2-2.58a4.87,4.87,0,0,1,1,.12,7.9,7.9,0,0,1,1.08.32,5.33,5.33,0,0,1,1,.46,4,4,0,0,1,.71.54,51.74,51.74,0,0,0-4,4.67,29,29,0,0,0-2.85,4.42c-.38.76-.73,1.47-1,2.13s-.59,1.32-.85,2-.5,1.3-.71,1.95-.4,1.34-.58,2.06q5.76-7.35,8.55-7.35a3.44,3.44,0,0,1,1.68.51,5.46,5.46,0,0,1,1.59,1.38A23,23,0,0,0,204,26.87c-.66,1-1.27,1.93-1.82,2.89a27.11,27.11,0,0,0-1.35,2.7,5.41,5.41,0,0,0-.52,1.85.61.61,0,0,0,.09.4.52.52,0,0,0,.39.11,1.8,1.8,0,0,0,.72-.12,1.34,1.34,0,0,1,.33-.12,2,2,0,0,1,.18.33.49.49,0,0,1,0,.15c0,.08-.12.2-.36.34a6.2,6.2,0,0,1-.86.45c-.33.15-.65.29-1,.41a2.3,2.3,0,0,1-.72.18,1.24,1.24,0,0,1-.6-.17,1.82,1.82,0,0,1-.53-.43,2.28,2.28,0,0,1-.36-.6,1.8,1.8,0,0,1-.13-.69,5.37,5.37,0,0,1,.25-1.34c.17-.58.41-1.27.71-2.07s.66-1.65,1.08-2.59.87-1.9,1.35-2.88a.11.11,0,0,0-.12-.12,1.47,1.47,0,0,0-.47.24c-.25.16-.48.32-.7.48a15.79,15.79,0,0,0-2.18,2,28.3,28.3,0,0,0-2.13,2.59,33.26,33.26,0,0,0-1.95,3A26.63,26.63,0,0,0,191.74,37a1.25,1.25,0,0,1-.27.39.49.49,0,0,1-.3.18c-.06,0-.15-.07-.26-.21a2.38,2.38,0,0,1-.3-.53c-.09-.21-.17-.42-.25-.64A1.71,1.71,0,0,1,190.24,35.63Z"/><path class="cls-2" d="M216.52,23.72a10.4,10.4,0,0,1-.66,3.2,6.94,6.94,0,0,1-1.55,2.33,10.85,10.85,0,0,1-2.44,1.82,26.7,26.7,0,0,1-3.36,1.56c0,.12,0,.25,0,.37s0,.27,0,.41a5.73,5.73,0,0,0,.06.81,3.19,3.19,0,0,0,.21.78,1.59,1.59,0,0,0,.42.59,1.1,1.1,0,0,0,.69.22,3.76,3.76,0,0,0,1.59-.36,8.3,8.3,0,0,0,1.48-.89,11,11,0,0,0,1.32-1.14c.41-.4.78-.78,1.1-1.12a6.11,6.11,0,0,1,.51.51,14.18,14.18,0,0,1-3,3,8.4,8.4,0,0,1-3,1.52,5,5,0,0,1-3.23-1.52,4.39,4.39,0,0,1-1.15-3.07,9.65,9.65,0,0,1,.34-2.51,12.22,12.22,0,0,1,1-2.45,13.79,13.79,0,0,1,1.44-2.24A11.86,11.86,0,0,1,210,23.69a8.57,8.57,0,0,1,1.95-1.23,4.87,4.87,0,0,1,2-.45A4,4,0,0,1,216.52,23.72Zm-2.07,1a4.45,4.45,0,0,0-1.68.66,7,7,0,0,0-1.64,1.44,11.42,11.42,0,0,0-1.39,2.1,12.1,12.1,0,0,0-1,2.58,13.4,13.4,0,0,0,4-3A6.13,6.13,0,0,0,214.45,24.71Z"/></g></g></g></svg>