<svg xmlns="http://www.w3.org/2000/svg" viewBox="0 0 549.63 67.19"><defs><style>.cls-1{fill:#010101;}.cls-2{fill:#ed2224;}</style></defs><g id="Layer_2" data-name="Layer 2"><g id="Layer_1-2" data-name="Layer 1"><path class="cls-1" d="M54.12,67.19c-4.3,0-11.24-2.18-19.28-4.71C29.38,60.77,23.76,59,19.18,58c-3.62,2.47-6.74,3.62-9.71,3.62C4.43,61.64,0,58,0,53.76a5.12,5.12,0,0,1,1.53-3.55l.08-.08c2-1.93,5.45-2.82,10.74-2.82l.84,0c4.63-4.07,10.13-10.92,15.93-18.14C41.18,14.18,52.57,0,63.41,0c5.47,0,8,4.47,9.34,6.87.22.4.52.93.71,1.21l.15.08a7.16,7.16,0,0,1,4.31,6.42c0,5.34-6.35,13.14-11.78,18.2C61.49,37.11,52.3,44.36,43,44.36a7.13,7.13,0,0,1-6.3-3.46c-2.39,2.71-4.79,5.4-7.16,7.89l3.39.43c7.12.9,14.5,1.83,19.79,1.83a17.16,17.16,0,0,0,6.15-1A4.5,4.5,0,0,1,63.12,47c2.59,0,5.22,2.26,5.22,6.59C68.34,59.79,60.63,67.19,54.12,67.19ZM42.22,34.63a3.29,3.29,0,0,1,.42.2c1.75-.53,6.26-3.31,11.79-9a51.15,51.15,0,0,0,7.25-9.22C56,19.4,48.76,27.22,42.22,34.63Z"/><path class="cls-1" d="M97.82,59.92c-4.08,0-7.84-2.22-10.6-6.25A19.62,19.62,0,0,1,85.5,50.6C81,54.39,74.93,59.05,72.18,59.05c-4.39,0-8-4.86-8-10.84C64.22,40,82,22.54,92.49,22.54c3.74,0,9.83,5,9.83,8.89a6.62,6.62,0,0,1-3.11,5.41,7.73,7.73,0,0,1,1.24,3.81c0,2.51-1.87,3.9-3.27,4.92,3.18-.54,6.13-2.53,8.61-5.83a5.21,5.21,0,0,1,.58-.69,4.11,4.11,0,0,1,3-1.25,4.51,4.51,0,0,1,4.36,4.72c0,2.24-3.25,6.87-5.18,9.44C103.12,59.09,99.83,59.92,97.82,59.92Z"/><path class="cls-1" d="M138.71,60.13c-1.64,0-8.75-1-11.68-3.91-2.43-2.42-3.91-6.28-4.42-11.49a114,114,0,0,0-7.81,9.88c-1.94,2.73-3.12,4.37-5.54,4.37-4.78,0-8.24-5.49-8.24-9.18,0-1.8,1-3.61,3.72-8.57,1.59-2.83,4.53-8.11,4.7-9.67v-.11a4.65,4.65,0,0,1-1.22-3.11,4.47,4.47,0,0,1,4.43-4.72,5.47,5.47,0,0,1,3.69,1.53,8,8,0,0,1,6,5.17c.47-.38.93-.75,1.38-1.09A4.77,4.77,0,0,1,128.35,26c3.07,0,9,3.05,9,7.82a30.31,30.31,0,0,1-.24,3.07,57.5,57.5,0,0,0-.4,5.93c0,2,.21,5.29,1.61,5.29a4.77,4.77,0,0,0,3.86-1.88c.16-.19.29-.32.37-.41a4.25,4.25,0,0,1,3-1.24,4.31,4.31,0,0,1,4.29,4.51C149.84,52,143.41,60.13,138.71,60.13Z"/><path class="cls-1" d="M171.55,63.52c-6.66,0-11.08-5.8-12.94-11-4.3,3.57-9.63,7.5-12.12,7.5-4.47,0-8-4.76-8-10.84,0-8.18,17.74-25.68,28.26-25.68a5.29,5.29,0,0,1,1.25.16c4.22-6.2,13-18,18.34-18,4.61,0,7.09,4.28,7.09,8.32,0,1.62-.5,3.57-6.73,11-3.23,3.87-7.36,8.44-11.14,12.31-3.85,6.51-4.73,10.2-4.86,12,4.16-1.39,16.77-14.26,19-17.89a4.12,4.12,0,0,1,4-3.18,4.51,4.51,0,0,1,4.36,4.65c0,5.88-7.53,15.45-9.83,18.24C183.57,56.78,176.88,63.52,171.55,63.52Z"/><path class="cls-1" d="M198.65,56.67A5.9,5.9,0,0,1,193.36,53a1.51,1.51,0,0,0-.11-.22,9.28,9.28,0,0,1-2.44-6.1c0-5,6.93-15.57,14.65-15.57a5.54,5.54,0,0,1,2.56-.63c4.77,0,8.36,5.08,8.36,8.37C216.38,46,205.78,56.67,198.65,56.67Z"/><path class="cls-1" d="M217,66c-5.48,0-8.51-6.93-8.51-11.73,0-3.14,2.32-7.92,4.62-11.87a6.17,6.17,0,0,1-4.33-6,4.1,4.1,0,0,1,4.09-4.29,4.73,4.73,0,0,1,1.65.32,3.61,3.61,0,0,0,1.42.21c.93,0,2.26,0,3.83-.09,9-11.67,13.36-11.67,14.85-11.67a9.6,9.6,0,0,1,4.44,1.22,5.67,5.67,0,0,1,5.17,5.42A6.37,6.37,0,0,1,242.09,32a9.35,9.35,0,0,1-2.55,1.78,7.17,7.17,0,0,1,1.28,4,4.72,4.72,0,0,1-4.68,5,4.43,4.43,0,0,1-3.1-1.3h-.16c-1.25,0-3.85.23-6.37.47-3.41,5.58-5.28,11.12-5.28,15.74a15.23,15.23,0,0,0,.21,2.62,8.53,8.53,0,0,1,.13,1.27A4.34,4.34,0,0,1,217,66Z"/><path class="cls-1" d="M281,59.66c-.89,0-6.24-.55-8.69-3a14.06,14.06,0,0,1-3.19-6.14,15.16,15.16,0,0,0-2.43,3.37,5.59,5.59,0,0,1-5.23,5c-2.47,0-4.26-1.88-5.43-4-3.27,2.19-7.47,4.25-11.71,4.25-5.52,0-9.37-5.65-9.37-10.72a7.82,7.82,0,0,1,2.18-5.61,7.43,7.43,0,0,0,.64-.75c-4.07-2.46-5.89-6.59-5.89-8.9a5.1,5.1,0,0,1,5.1-5,4.15,4.15,0,0,1,4.24,4.14,2.26,2.26,0,0,1,0,.26,7.69,7.69,0,0,0,1.91.46c1.55-3.07,2.62-5.53,3-6.67a3.94,3.94,0,0,1-.08-.77,4.25,4.25,0,0,1,4.29-4.29c3.12,0,7.55,4,7.55,7.8a6.48,6.48,0,0,1-.32,2c2.45-.66,5-1.45,7.65-2.36a38.65,38.65,0,0,1,5-6.57l.19-.19c2.1-2.1,3.62-3.62,6.72-3.62,2.92,0,4.78,2.22,5.75,3.48a4.87,4.87,0,0,1,2.48,4.26c0,1.89-.67,4.22-7.82,8.15,2.51.65,5.42,2.38,5.42,5.44a5.66,5.66,0,0,1-1,3,6.32,6.32,0,0,0-1.08,3.7,8.77,8.77,0,0,0,.3,2.58,1.84,1.84,0,0,0,1.11-.75,3.86,3.86,0,0,1,.36-.39,4.17,4.17,0,0,1,3-1.22,4.22,4.22,0,0,1,4.19,4.34c0,.7,0,2-2.78,5.18C284.9,58.53,283,59.66,281,59.66ZM249.87,43.79c-.74,1.13-1.33,2.08-1.81,2.88a30.43,30.43,0,0,0,5.36-3.47C252.24,43.44,251.05,43.64,249.87,43.79Z"/><path class="cls-1" d="M291,58.7c-5.32,0-10.05-6.93-10.05-12.4,0-6.66,7.78-14.8,16.87-14.8a8,8,0,0,1,4.83,1.75c2.26.91,4.26,2.8,4.26,5.42a4.32,4.32,0,0,1-.3,1.44,29.11,29.11,0,0,0,2.4-2.06,4.33,4.33,0,0,1,3.06-1.27,4.06,4.06,0,0,1,4.1,4.1c0,1.88-1.22,3.25-2.47,4.5-.35.36-.85.94-1.42,1.61C308.79,51.08,302.27,58.7,291,58.7Z"/><path class="cls-1" d="M339.57,67.19c-9.86,0-32.95-9.27-32.95-27.26,0-21,28-39.79,50-39.79,10.27,0,19.53,3.62,26.09,10.18a10.06,10.06,0,0,0,1.49,1.06c1.82,1.15,4.87,3.08,4.87,7.81,0,7.71-8.18,14.54-15,18.91-6.25,4-15.36,8.28-20.58,8.28A4.4,4.4,0,0,1,349,42a4.17,4.17,0,0,1,3.2-4.1c4.75-2.31,21.07-15.6,21.07-20.09,0-2.16-3.78-5.58-13.93-5.58-15.23,0-37.91,18.11-37.91,30.27,0,5.1,4.88,11,18.61,11,18.85,0,37.09-9.79,39.33-11.33A4.31,4.31,0,0,1,382.48,41,4,4,0,0,1,386.56,45a4.68,4.68,0,0,1-.89,2.65,4,4,0,0,1-.31.41c-3.13,3.6-7.59,6-10.25,7.5l-1.25.7C366.53,63.53,355,67.19,339.57,67.19Z"/><path class="cls-1" d="M380,62.65c-5.54,0-8.32-5.65-8.32-8.82,0-1.9,1-3.24,4.33-7.71,2.25-3,7.51-10.08,7.69-12.28a1.08,1.08,0,0,0,0-.16l0,0a5,5,0,0,1-.47-2.06,4.3,4.3,0,0,1,4.43-4.36c2,0,5.34,1.66,7.36,4.07,3.42-2.23,7.61-4.43,10.79-4.43S415,29.61,415,34.1c0,2-1.05,3.58-2.32,5.22h.05a4.18,4.18,0,0,1,4.14,4.21c0,4.85-7.58,7-9.54,7-3.85,0-8.79-4.08-9.1-8.53a47.37,47.37,0,0,0-4.06,3.61c-7,7-8.37,10.88-9,12.73C384.67,59.65,383.6,62.65,380,62.65Z"/><path class="cls-1" d="M437.2,64.09c-4.08,0-7.84-2.21-10.59-6.24a21.56,21.56,0,0,1-1.73-3.07c-4.48,3.79-10.57,8.45-13.32,8.45-4.38,0-8-4.86-8-10.84,0-8.18,17.75-25.68,28.27-25.68,3.74,0,9.83,5,9.83,8.9A6.63,6.63,0,0,1,438.6,41a7.81,7.81,0,0,1,1.23,3.81c0,2.51-1.87,3.9-3.27,4.92,3.18-.55,6.13-2.54,8.61-5.83a6.55,6.55,0,0,1,.58-.7,4.14,4.14,0,0,1,3-1.24,4.5,4.5,0,0,1,4.36,4.72c0,2.24-3.25,6.87-5.18,9.43C442.51,63.27,439.21,64.09,437.2,64.09Z"/><path class="cls-1" d="M478.09,64.31c-1.64,0-8.75-1-11.68-3.91C464,58,462.5,54.12,462,48.9a115.28,115.28,0,0,0-7.81,9.89c-1.94,2.72-3.12,4.37-5.54,4.37-4.78,0-8.24-5.49-8.24-9.19,0-1.8,1-3.6,3.72-8.56,1.59-2.84,4.53-8.11,4.7-9.67v-.11a4.66,4.66,0,0,1-1.22-3.12A4.48,4.48,0,0,1,452,27.79a5.45,5.45,0,0,1,3.69,1.54,8,8,0,0,1,6,5.17c.47-.39.93-.75,1.38-1.1a4.78,4.78,0,0,1,4.63-3.23c3.08,0,9,3,9,7.82a29.93,29.93,0,0,1-.24,3.06,57.9,57.9,0,0,0-.4,5.94c0,2,.21,5.29,1.61,5.29a4.8,4.8,0,0,0,3.86-1.88c.16-.19.29-.33.37-.41a4.26,4.26,0,0,1,3.05-1.24,4.3,4.3,0,0,1,4.28,4.5C489.22,56.14,482.79,64.31,478.09,64.31Z"/><path class="cls-1" d="M493,65.68c-8,0-15.24-8.19-15.24-17.18,0-8.44,12.06-22.43,24.89-22.43,4.1,0,9.4,4.1,9.4,8.46,0,5.31-10.21,14.57-20.54,18l.41,0c7.06,0,18.87-4.51,30.09-11.48,11.91-7.4,17.46-14.13,17.46-16.35a3.87,3.87,0,0,0-.18-1.36,4.42,4.42,0,0,1,.51-8.83c4.55,0,9.83,5.14,9.83,11.77C549.63,43.24,517.35,65.68,493,65.68Z"/><path class="cls-2" d="M70.75,11.06c.79.79,3.17,1.15,3.17,3.52,0,6.34-17.72,25.78-30.89,25.78-1.8,0-2.88-1.15-2.88-1.73a.26.26,0,0,1,.07-.21c.14-.07.22-.14.29-.14.36,0,.72.64,1.65.64,6.77,0,25-18.65,25-25.92a1.45,1.45,0,0,0-1.58-1.51C52.75,11.49,35,39.36,20.71,51.81c10.51,1,23.47,3.24,32,3.24,4.46,0,8.13-1.08,9.21-2.23.87-.86.58-1.51.87-1.73a.37.37,0,0,1,.29-.14c.5,0,1.22.86,1.22,2.59,0,3.82-5.76,9.65-10.22,9.65-6.77,0-24.7-7.42-35.86-9.43-3.17,2.37-6.12,3.88-8.79,3.88S4,55.63,4,53.76A1.15,1.15,0,0,1,4.36,53c1.3-1.23,4.18-1.73,8-1.73.72,0,1.44.07,2.23.07C28.55,40.15,49.22,4,63.41,4,67.87,4,69,9.4,70.75,11.06ZM11.7,53.4c-2.73.14-4.53.64-4.53,1s.29.29.43.29A8.75,8.75,0,0,0,11.7,53.4Z"/><path class="cls-2" d="M96.45,40.65c0,1.15-4.1,2.67-4.1,4.54s.57,4.53,3,4.53c8.71,0,13.46-7.48,13.82-7.84.08-.08.08-.08.15-.08s.36.22.36.72c0,.87-7.71,13.4-11.88,13.4-6.2,0-9.94-8-9.94-12V43.1c-5.11,5.18-14.33,11.95-15.7,11.95-1.94,0-4-3-4-6.84,0-5.4,15.56-21.67,24.27-21.67,1.8,0,5.83,3.38,5.83,4.89,0,1.8-2.81,3.1-3.81,3.1-.22,0-.36-.07-.36-.22,0-.79,1.36-1.58,1.36-2.08s-.79-1.52-2.66-1.52C85,30.71,71.75,45,71.75,47.78a.34.34,0,0,0,.36.36c2.23,0,14.69-9.51,17.64-11.74.44-.79.79-1.29,1.15-1.29C93.21,35.11,96.45,38.92,96.45,40.65Z"/><path class="cls-2" d="M128.35,30c1.58,0,5,2,5,3.82,0,1.51-.64,5.26-.64,9,0,4.68,1,9.29,5.61,9.29a8.91,8.91,0,0,0,7.06-3.46.26.26,0,0,1,.21-.07c.22,0,.29.22.29.51,0,.64-4.75,7.05-7.13,7.05-1.87,0-7.27-1.15-8.85-2.73-2.67-2.67-3.46-8.14-3.46-13.11,0-2,.14-4,.29-5.54l-1.8,1.72C113.73,47.64,110.27,55,109.26,55,107.1,55,105,51.74,105,49.8s8.42-14.33,8.42-18.15c0-2.74-1.22-2.59-1.22-3.31,0-.51.14-.72.43-.72.5,0,1.37.79,1.65,1.08.51.5,4.61,0,4.61,5.26,0,2.51-5.11,10.15-5.11,10.15s8.42-9.07,13.39-12.46a3.31,3.31,0,0,1,.51-1.44A.89.89,0,0,1,128.35,30Z"/><path class="cls-2" d="M161.61,47.42a14.26,14.26,0,0,1,.43-3.31C156.93,49.29,147.78,56,146.49,56c-2,0-4-3-4-6.84,0-5.33,15.48-21.68,24.26-21.68.79,0,1.59.87,2.23,2,6.34-10.15,14.77-19.8,17.36-19.8s3.09,3,3.09,4.32c0,2.16-9.79,13.46-17.06,20.88-3.24,5.4-5.69,10.87-5.69,15a3.48,3.48,0,0,0,3.75,3.6c5.83,0,23.11-19.09,23.11-20.89,0-.21.07-.28.14-.28s.36.28.36.65c0,6.33-16.27,26.64-22.53,26.64S161.61,51.45,161.61,47.42Zm4-12c-.72,0-1.23-.15-1.23-.36,0-.8,2.24-.94,2.24-2,0-.5-.36-.72-.87-.72-7.34,0-19.65,13.54-19.65,16.28a.34.34,0,0,0,.36.36c2.44,0,15.91-10.37,18.5-12.61Z"/><path class="cls-2" d="M198.65,52.67c-1.48,0-1.58-1.68-2.4-2.5a5.42,5.42,0,0,1-1.44-3.45c0-2.93,5.28-11.57,10.66-11.57a2.13,2.13,0,0,1,1.1.29.89.89,0,0,1,.2-.29,1.63,1.63,0,0,1,1.25-.63c2.3,0,4.36,3,4.36,4.37C212.38,43.79,203.45,52.67,198.65,52.67Zm9.41-14.16c-.29,0-.77-.1-1.53-.1-3.51,0-8.31,6.87-8.31,10,0,.91.39,1.53,1.39,1.53,1.92,0,9.75-7.44,9.75-11.57,0-1.82-1-2.59-1.68-2.59-.24,0-.34,0-.39.1a2.94,2.94,0,0,1,1.21,1.87C208.5,38.36,208.4,38.51,208.06,38.51Z"/><path class="cls-2" d="M212.86,36.06a8.59,8.59,0,0,0,3.07.53c1.59,0,3.65-.05,5.91-.19,4.61-6.24,9.79-11.57,12.77-11.57,1.68,0,3.07,1.15,3.41,1.15,1,0,2.2.48,2.2,1.49a2.63,2.63,0,0,1-1,1.73c-1.34,1.34-4.32,2.16-6,2.16-.72,0-1.2-.15-1.2-.48s5-2.93,5-3.89c0-.19-.24-.34-.76-.34-2,0-6.63,3.89-10.76,9.55,4.66-.28,9-.67,9.75-.67s1.49,1.35,1.49,2.31c0,.52-.2,1-.68,1s-.62-1.3-3.26-1.3c-1.73,0-5.23.34-8.69.67-3.79,5.72-7,12.82-7,19.54a28.22,28.22,0,0,0,.34,3.89c0,.34-.15.38-.58.38-1.3,0-4.51-2.4-4.51-7.73,0-2.83,3.5-9.5,7.82-15.74-1.87.19-3.5.29-4.37.29-2.88,0-3.16-1.59-3.16-2.45C212.77,36.11,212.77,36.06,212.86,36.06Z"/><path class="cls-2" d="M249.68,36.84A96.51,96.51,0,0,0,267.92,32a41.68,41.68,0,0,1,5.14-7c2.06-2.07,2.59-2.64,4.08-2.64,1.68,0,3,2.88,3.46,2.88a.81.81,0,0,1,.77.86c0,1.25-3.7,3.74-8.93,6.29-4.47,6.14-9,14.54-9,16.18,2.31-2.35,7.49-7.49,8.35-7.49a1.46,1.46,0,0,0,.15-.58c0-.48,2.16-2.54,3.55-2.54S279,39,279,39.68s-2.07,2.44-2.07,6.67c0,3.17.72,6.62,3.89,6.62a5.86,5.86,0,0,0,4.7-2.35.18.18,0,0,1,.15,0c.14,0,.19.15.19.34,0,.43-3.17,4.75-4.8,4.75-1.2,0-4.8-.77-5.86-1.82-1.63-1.63-2.69-5.38-2.78-8.4,0-.77.09-3.17.09-3.17-1.2,0-9.74,8.26-9.74,11.28,0,.38-.67,1.34-1.25,1.34-1.25,0-3.17-4.08-3.17-5.52a2.24,2.24,0,0,1,.87-1.68c.29-.29,1.92-3.45,4-7.39-3.74,4.22-3.17,6-4.08,6.91-1.87,1.87-8.69,7.92-14.79,7.92-3.12,0-5.37-3.74-5.37-6.72a3.85,3.85,0,0,1,1-2.78A32.23,32.23,0,0,0,243.92,40c-5.9-.67-8-5.42-8-6.81,0-.58.72-1,1.1-1,.14,0,.24.05.24.14s-.58.63-.58,1,.92,3.84,8.64,3.84h.2c2.54-4.75,4.8-9.79,4.8-10.8,0-.58-.2-.58-.2-.77a.26.26,0,0,1,.29-.29c.87,0,3.55,2.21,3.55,3.8C254,30.46,252,33.44,249.68,36.84Zm14.64,1.44c.53-1.05,1.16-2.06,1.73-3.12-6.05,2.4-12.91,4.42-18.48,4.85-2.74,4.08-5.33,8.21-5.33,10.42,0,.86.29,1.53,1.2,1.53,9.31,0,20.26-13.1,20.74-13.58C264.23,38.33,264.28,38.28,264.32,38.28Zm10.56-9.07C278,27.82,280,26.62,280,26a.4.4,0,0,0-.43-.44C278.44,25.56,276.76,27.05,274.88,29.21Z"/><path class="cls-2" d="M300.52,36.75c1.15.29,2.4,1.1,2.4,1.92,0,1-5.57,7.68-13.25,7.68a2,2,0,0,1-1.68-.67,6.57,6.57,0,0,0-.77,2.69c0,1.39.86,2.35,2.93,2.35,11.28,0,20.59-8.74,21.69-9.84a.38.38,0,0,1,.24-.1c.05,0,.1,0,.1.1s-.29.67-1.3,1.68C308,45.44,302.24,54.7,291,54.7c-2.11,0-6.05-3.94-6.05-8.4,0-4.22,5.86-10.8,12.87-10.8A3.74,3.74,0,0,1,300.52,36.75Zm-1.06,1c-4.56,0-9,3.69-11,7.15a3.18,3.18,0,0,0,1.05.14c3.89,0,9.94-5.56,9.94-7Z"/><path class="cls-2" d="M356.63,4.14c7.56,0,16.42,2.16,23.26,9,2.23,2.16,5.19,2.37,5.19,6,0,10.52-24.63,23.19-31.62,23.19A.41.41,0,0,1,353,42a.2.2,0,0,1,.22-.22c1.44,0,24.05-15.77,24.05-24,0-4-4.39-9.58-17.93-9.58-17.14,0-41.91,19.37-41.91,34.27,0,6.84,5.83,15,22.61,15,20.88,0,41.05-11.23,42.13-12.45a.27.27,0,0,1,.28-.15c.08,0,.08,0,.08.07a1.2,1.2,0,0,1-.22.44c-3.82,4.39-10.51,7.05-11.16,7.85-4,4-12.6,9.86-31.61,9.86-7.35,0-28.95-7.49-28.95-23.26C310.62,21.28,336.47,4.14,356.63,4.14Z"/><path class="cls-2" d="M412.72,43.32c.07,0,.14.07.14.21,0,1.15-4.17,3-5.54,3-1.94,0-5.11-2.81-5.11-5,0-2.88,3.31-6.27,3.31-7.35,0-.21-.14-.36-.5-.36-2.6,0-8.72,4-13.69,8.93C379.6,54.62,382.19,58.65,380,58.65c-2.95,0-4.32-3.6-4.32-4.82,0-1.58,12-14.91,12-19.95a7.19,7.19,0,0,0-.5-2.3c0-.29.14-.36.43-.36,1.3,0,5,2.45,5,4.1a9.92,9.92,0,0,1-1.22,3.53c3.45-3,10.8-8,14.33-8,1.73,0,5.18,1.73,5.18,3.24,0,2-5,5.83-5,8.78,0,.87.58,1.8,2.16,1.8C410.49,44.68,412.22,43.32,412.72,43.32Z"/><path class="cls-2" d="M435.83,44.83c0,1.15-4.1,2.66-4.1,4.53s.57,4.54,3,4.54c8.71,0,13.47-7.49,13.83-7.85.07-.07.07-.07.14-.07s.36.22.36.72c0,.86-7.71,13.39-11.88,13.39-6.19,0-9.94-8-9.94-12v-.79c-5.11,5.18-14.33,11.95-15.7,11.95-1.94,0-4-3-4-6.84,0-5.4,15.56-21.68,24.27-21.68,1.8,0,5.83,3.39,5.83,4.9,0,1.8-2.81,3.1-3.81,3.1-.22,0-.36-.07-.36-.22,0-.79,1.36-1.58,1.36-2.09s-.79-1.51-2.66-1.51c-7.85,0-21.1,14.33-21.1,17.07a.35.35,0,0,0,.36.36c2.23,0,14.69-9.51,17.64-11.74.44-.79.8-1.3,1.16-1.3C432.59,39.28,435.83,43.1,435.83,44.83Z"/><path class="cls-2" d="M467.73,34.17c1.58,0,5,1.95,5,3.82,0,1.51-.64,5.25-.64,9,0,4.68,1,9.29,5.61,9.29a8.91,8.91,0,0,0,7.06-3.46.27.27,0,0,1,.22-.07c.21,0,.28.21.28.5,0,.65-4.75,7.06-7.13,7.06-1.87,0-7.27-1.15-8.85-2.74-2.67-2.66-3.46-8.13-3.46-13.1,0-2,.15-4,.29-5.55l-1.8,1.73c-11.16,11.16-14.62,18.51-15.63,18.51-2.16,0-4.24-3.24-4.24-5.19s8.42-14.33,8.42-18.14c0-2.74-1.22-2.59-1.22-3.32,0-.5.14-.72.43-.72.5,0,1.37.8,1.65,1.08.51.51,4.61,0,4.61,5.26,0,2.52-5.11,10.15-5.11,10.15s8.43-9.07,13.39-12.45a3.31,3.31,0,0,1,.51-1.44A.85.85,0,0,1,467.73,34.17Z"/><path class="cls-2" d="M486.3,49.72a9.25,9.25,0,0,0-.22,2c0,2.81,1.66,4.9,5.84,4.9,17.14,0,51.55-21.61,51.55-31.83,0-4.61-2.73-5.33-3.6-5.33-.43,0-.64-.22-.64-.43s.21-.43.57-.43c2,0,5.83,3.09,5.83,7.77C545.63,40,515.9,61.68,493,61.68c-5.76,0-11.24-6.48-11.24-13.18,0-6.41,10.37-18.43,20.89-18.43,2.66,0,5.4,3,5.4,4.46C508.05,37.7,497.1,48.14,486.3,49.72Zm1.3-3.38c8.13-2.52,17-10,17-11.59,0-.22-.07-.29-.36-.29C497.32,34.46,490.48,40.58,487.6,46.34Z"/></g></g></svg>